<?xml version="1.0" encoding="UTF-8"?>
<svg id="Layer_1" data-name="Layer 1" xmlns="http://www.w3.org/2000/svg" viewBox="0 0 500 500">
  <path d="m332.86,302.17h-7.11c-9.09,0-16.45-7.36-16.45-16.45v-131.61l132.5,148.06h-108.93Zm-33.38-152.4v152.4H104.94l9.9-9.79,153.26-152.49c4.11-4.22,7.04-6.28,11.43-6.82.85-.16,1.72-.26,2.61-.26,8.52,0,17.34,6.35,17.34,16.96Zm-79.04,68.71h43.68c4.08-.1,7.69-2.02,10.07-4.99,1.84-2.31,3.12-5.25,3.12-8.47v-42.93l-56.87,56.4Zm56.97,61.48v-8.17s-.03,0-.03,0v-17.7c0-7.01-5.76-12.59-13.41-13.02h-60.25c-3.17.18-5.47.36-9.31,3.51l-29.8,29.65h-.04l-5.73,5.7-.03.03h118.61Zm-145.51,59.47c-.58.81-.58,1.94.02,2.77l18.97,24.98h-8.65l-15.69-20.73-15.76,20.73h-8.57l18.99-25.01c.58-.81.58-1.93-.02-2.77l-18.97-24.98h8.57l15.76,20.72,15.69-20.72h8.65l-18.99,25.01Zm19.27,27.68h6.8v-52.77h-6.8v52.77Zm50.4-41.65v.04s0,30.64,0,30.64c-.18,6.09-5.12,11.04-11.01,11.04h-18.97c-6.05-.09-10.91-4.94-11.09-11.04v-30.68c.18-6.02,5.03-10.87,11.04-11.04h19.06c5.97.17,10.79,5.03,10.97,11.04Zm-6.87.04c-.06-2.26-1.85-4.08-4.18-4.21h-18.91c-2.36.06-4.17,1.89-4.23,4.25v30.56c.06,2.37,1.84,4.16,4.25,4.21h18.93c2.25-.06,4.08-1.92,4.14-4.25v-30.56Zm64.52-11.63c-1.85,0-3.47.91-4.46,2.49-.03.05-.05.1-.08.14l-20.04,41.8-20.04-41.8s-.05-.1-.08-.14c-.98-1.58-2.6-2.49-4.46-2.49-2.66,0-5.4,1.98-5.4,5.28v46.51c0,.84.68,1.52,1.52,1.52h3.75c.84,0,1.52-.68,1.52-1.52v-39.74l19.44,40.4c.25.53.79.86,1.37.86h4.74c.59,0,1.12-.34,1.37-.86l19.44-40.4v39.74c0,.84.68,1.52,1.52,1.52h3.75c.84,0,1.53-.68,1.53-1.52v-46.51c0-3.31-2.75-5.28-5.4-5.28Zm-158.32,5.76v47.55h-60.7l3.09-3.05,47.82-47.58c1.28-1.32,2.2-1.96,3.57-2.13.27-.05.54-.08.81-.08,2.66,0,5.41,1.98,5.41,5.29Zm-24.66,21.44h13.63c1.27-.03,2.4-.63,3.14-1.56.57-.72.97-1.64.97-2.64v-13.4l-17.75,17.6Zm17.78,19.18v-2.55s0,0,0,0v-5.53c0-2.19-1.8-3.93-4.19-4.06h-18.8c-.99.06-1.71.11-2.9,1.09l-9.3,9.25h-.01l-1.79,1.78h0s37.01,0,37.01,0Zm227.74-43.03c-2.13-2.16-5.04-3.39-8.01-3.39h-28.76c-.84,0-1.53.68-1.53,1.53v23.78l2.31,2.58,4.54,5.07v-21.7c.13-2.49,1.9-4.26,4.31-4.32h19.2c2.28,0,4.21,1.96,4.21,4.29v31c0,2.26-1.91,4.15-4.21,4.21h-11.45l4.18,4.67,2.02,2.25h5.28c6.11-.09,11.2-5.2,11.11-11.14v-30.98c.04-2.92-1.1-5.7-3.21-7.84Zm12.07-3.55h-3.8c-.84,0-1.53.68-1.53,1.52v50.38c0,.84.68,1.52,1.53,1.52h3.8c.84,0,1.52-.68,1.52-1.52v-50.38c0-.84-.68-1.52-1.52-1.52Zm34.01,23.33h-19.24c-2.41-.06-4.27-1.92-4.32-4.29v-7.71c.06-2.45,1.88-4.27,4.29-4.33h23.02c.84,0,1.52-.68,1.52-1.52v-3.88c0-.84-.68-1.52-1.52-1.52h-23.04c-6.1.09-11.01,5-11.19,11.17v7.84c.18,6.17,5.1,11.08,11.21,11.17h19.18c2.37.06,4.19,1.92,4.25,4.29v7.71c-.06,2.37-1.92,4.27-4.21,4.33h-25.04c-.84,0-1.52.68-1.52,1.52v3.88c0,.84.68,1.52,1.52,1.52h25.04c6.05,0,11.04-5.02,11.14-11.21v-7.77c-.09-6.17-5.06-11.19-11.08-11.19Zm49.24,23.25h-24.92c-2.37-.06-4.19-1.87-4.32-4.33v-30.93c.14-2.47,1.98-4.33,4.29-4.33h24.96c.84,0,1.52-.68,1.52-1.52v-3.88c0-.84-.68-1.52-1.52-1.52h-25.09c-2.84,0-5.66,1.22-7.75,3.34-2.11,2.14-3.3,5.02-3.25,7.88v30.98c-.09,6,5,11.14,11.14,11.24h24.96c.84,0,1.52-.68,1.52-1.52v-3.88c0-.84-.68-1.52-1.52-1.52Zm42.76-12.06c-.09-6.17-5.06-11.19-11.08-11.19h-19.25c-2.41-.06-4.26-1.92-4.32-4.29v-7.71c.06-2.45,1.88-4.27,4.29-4.33h23.02c.84,0,1.53-.68,1.53-1.52v-3.88c0-.84-.68-1.52-1.53-1.52h-23.04c-6.1.09-11.01,5-11.19,11.17,0,.01,0,.03,0,.04v7.75s0,.03,0,.04c.18,6.17,5.1,11.08,11.21,11.17h19.19c2.36.06,4.19,1.92,4.25,4.29v7.71c-.06,2.37-1.92,4.27-4.21,4.33h-25.04c-.84,0-1.52.68-1.52,1.52v3.88c0,.84.68,1.52,1.52,1.52h25.04c6.05,0,11.05-5.02,11.14-11.21v-7.77Zm-176.32,5.6v10.87c0,1.27,1.03,2.3,2.3,2.3h18.48l-20.77-23.22v10.05Z"/>
</svg>