<?xml version="1.0" standalone="no"?>
<!DOCTYPE svg PUBLIC "-//W3C//DTD SVG 20010904//EN"
 "http://www.w3.org/TR/2001/REC-SVG-20010904/DTD/svg10.dtd">
<svg version="1.0" xmlns="http://www.w3.org/2000/svg"
 width="900.000000pt" height="378.000000pt" viewBox="0 0 900.000000 378.000000"
 preserveAspectRatio="xMidYMid meet">
<metadata>
Created by potrace 1.10, written by Peter Selinger 2001-2011
</metadata>
<g transform="translate(0.000000,378.000000) scale(0.100000,-0.100000)"
fill="#000000" stroke="none">
<path d="M1178 3759 c-14 -14 -32 -19 -75 -19 -32 -1 -69 -7 -83 -15 -14 -8
-38 -15 -55 -15 -16 0 -39 -7 -49 -15 -11 -8 -32 -15 -47 -15 -14 0 -32 -7
-39 -15 -7 -8 -23 -15 -35 -15 -12 0 -28 -7 -35 -15 -7 -8 -20 -15 -30 -15
-10 0 -23 -7 -30 -15 -7 -8 -20 -15 -30 -15 -10 0 -23 -7 -30 -15 -7 -8 -17
-15 -22 -15 -6 0 -27 -13 -48 -30 -21 -16 -42 -30 -47 -30 -5 0 -16 -8 -24
-17 -9 -10 -37 -36 -64 -58 -50 -41 -205 -213 -205 -227 0 -5 -14 -27 -30 -50
-17 -22 -30 -47 -30 -53 0 -7 -7 -18 -15 -25 -8 -7 -15 -20 -15 -30 0 -10 -7
-23 -15 -30 -8 -7 -15 -22 -15 -34 0 -11 -7 -30 -15 -40 -8 -11 -15 -29 -15
-40 0 -12 -7 -30 -15 -40 -8 -11 -15 -33 -15 -49 0 -15 -5 -38 -12 -50 -22
-38 -30 -156 -31 -402 0 -244 10 -372 31 -412 7 -12 12 -32 12 -45 0 -13 7
-33 15 -44 8 -10 15 -27 15 -36 0 -10 6 -32 14 -50 8 -18 17 -40 20 -48 4 -8
15 -28 26 -45 11 -16 24 -41 30 -54 18 -40 105 -152 157 -202 52 -50 167 -139
179 -139 4 0 15 -6 23 -14 25 -22 132 -76 150 -76 10 0 26 -7 37 -15 10 -8 29
-15 41 -15 12 0 37 -6 55 -14 149 -65 580 -81 783 -30 132 33 189 53 245 85 8
5 21 11 28 14 32 13 39 16 64 33 153 100 252 190 318 290 27 42 50 84 50 92 0
9 6 24 14 35 7 11 16 36 18 55 3 19 11 61 18 92 11 49 10 64 -4 107 -9 27 -16
61 -16 75 0 41 -61 146 -120 207 -80 81 -131 102 -255 102 -92 0 -105 -2 -167
-32 -87 -42 -193 -141 -235 -220 -18 -34 -33 -67 -33 -75 0 -7 -7 -27 -15 -42
-19 -37 -19 -91 0 -128 8 -15 15 -34 15 -40 0 -12 55 -76 65 -76 4 0 25 15 48
33 84 64 113 71 171 36 36 -21 76 -88 76 -127 0 -28 -34 -93 -63 -119 -47 -43
-103 -54 -252 -51 -129 4 -177 12 -225 39 -8 5 -28 15 -45 22 -41 19 -121 83
-175 142 -25 26 -53 55 -62 64 -10 8 -18 19 -18 24 0 5 -11 23 -24 40 -14 18
-29 43 -35 57 -6 14 -15 32 -20 40 -8 14 -15 29 -55 123 -9 21 -16 48 -16 60
-1 12 -7 33 -15 47 -8 14 -15 48 -15 75 -1 28 -7 68 -15 90 -10 27 -15 83 -15
175 0 92 5 148 15 175 8 22 14 65 15 95 0 30 7 66 15 80 8 14 14 39 15 56 0
16 7 39 15 50 8 10 15 27 15 37 0 11 6 31 14 45 7 15 24 50 37 77 12 28 40 75
60 106 44 64 151 169 172 169 8 0 20 7 27 15 7 8 22 15 34 15 12 0 31 7 42 15
29 22 150 20 195 -3 60 -31 73 -48 123 -165 21 -49 22 -211 1 -247 -8 -14 -14
-33 -15 -42 0 -10 -14 -40 -31 -68 -38 -61 -34 -86 18 -126 l38 -29 156 0
c135 0 160 2 176 18 11 9 23 17 28 17 5 0 28 9 51 20 62 31 154 127 192 201
32 63 32 65 32 209 0 144 0 145 -33 210 -61 120 -154 208 -287 270 -25 12 -58
28 -73 35 -16 8 -38 15 -50 15 -12 1 -33 7 -47 15 -14 8 -46 14 -72 15 -56 0
-78 7 -78 26 0 12 -38 14 -217 13 -201 -1 -219 -2 -235 -20z"/>
<path d="M3172 3760 c-7 -11 -20 -20 -30 -20 -10 0 -27 -7 -38 -15 -10 -8 -28
-15 -40 -15 -11 0 -29 -7 -40 -15 -10 -8 -32 -15 -49 -15 -16 0 -39 -7 -49
-15 -11 -8 -35 -15 -53 -15 -19 0 -48 -6 -66 -14 -19 -7 -95 -16 -177 -21 -80
-4 -153 -11 -162 -16 -30 -16 -21 -52 21 -92 22 -20 49 -57 60 -80 21 -44 21
-46 17 -928 -2 -486 -8 -950 -13 -1030 -10 -144 -11 -148 -46 -200 -46 -72
-52 -92 -29 -112 17 -16 58 -17 443 -15 l424 3 3 33 c2 22 -5 45 -25 75 -67
101 -64 23 -59 1247 2 608 7 1131 11 1164 5 38 3 62 -4 69 -6 6 -11 19 -11 29
0 27 -71 25 -88 -2z"/>
<path d="M7673 3773 c11 -11 -14 -33 -38 -33 -13 0 -38 -8 -57 -17 -18 -9 -45
-22 -60 -30 -14 -7 -37 -13 -50 -13 -12 0 -32 -7 -42 -15 -11 -8 -34 -15 -50
-15 -17 -1 -42 -7 -56 -15 -14 -8 -46 -14 -71 -15 -26 0 -66 -7 -89 -15 -27
-9 -79 -15 -141 -15 -95 0 -100 -1 -110 -24 -10 -21 -7 -29 24 -63 19 -21 45
-50 56 -65 21 -26 21 -28 21 -1051 0 -1022 0 -1025 -21 -1073 -12 -27 -32 -64
-46 -82 -17 -22 -23 -42 -21 -65 l3 -32 420 -3 c231 -1 430 0 443 3 23 6 31
41 13 61 -5 5 -23 35 -40 66 l-31 57 0 605 0 605 61 36 c55 32 67 35 138 35
52 0 83 -5 97 -15 10 -8 25 -15 33 -15 18 0 91 -74 91 -93 0 -8 7 -20 15 -27
13 -11 15 -87 15 -571 0 -617 5 -564 -64 -666 -41 -61 -34 -77 39 -84 79 -9
773 -11 814 -3 27 6 31 10 31 40 0 24 -5 34 -15 34 -9 0 -20 10 -25 23 -6 12
-22 42 -35 66 l-25 44 0 576 c-1 481 -3 580 -15 601 -8 14 -14 36 -15 48 0 21
-12 51 -41 102 -5 8 -13 24 -18 35 -9 21 -116 134 -162 171 -47 38 -143 83
-230 108 -70 20 -219 20 -274 1 -22 -8 -48 -15 -58 -15 -17 0 -38 -9 -97 -41
-8 -4 -34 -18 -57 -29 -24 -12 -75 -55 -115 -96 -40 -40 -76 -74 -80 -74 -5 0
-8 227 -8 505 0 494 0 505 -20 515 -11 6 -20 17 -20 25 0 8 -5 15 -12 15 -6 0
-8 -3 -5 -7z"/>
<path d="M4040 2978 c-19 -5 -55 -13 -80 -18 -57 -10 -99 -25 -180 -64 -75
-36 -176 -131 -185 -173 -4 -15 -13 -43 -21 -61 -18 -42 -18 -109 1 -146 8
-15 15 -36 15 -46 0 -24 67 -91 118 -118 64 -33 182 -31 253 4 53 27 109 78
109 100 0 6 6 17 14 23 14 12 21 45 39 211 8 68 19 116 31 135 26 42 81 75
123 75 66 0 152 -70 153 -123 0 -15 7 -42 16 -58 12 -25 15 -61 12 -201 -3
-195 0 -188 -101 -207 -63 -12 -147 -34 -202 -53 -16 -5 -43 -14 -60 -18 -120
-34 -276 -114 -387 -198 -49 -36 -88 -68 -88 -71 0 -3 -21 -28 -45 -56 -25
-27 -45 -57 -45 -66 0 -9 -7 -22 -15 -29 -8 -7 -15 -20 -15 -29 0 -9 -6 -23
-12 -29 -11 -11 -29 -130 -29 -192 0 -60 14 -148 28 -180 9 -19 24 -50 32 -69
16 -34 116 -131 136 -131 6 0 16 -5 23 -12 24 -24 85 -41 225 -63 55 -9 176 8
220 31 16 8 34 14 42 14 7 0 18 7 25 15 7 8 20 15 29 15 9 0 33 15 54 33 20
17 53 45 73 61 20 17 41 40 47 53 5 13 18 23 27 23 25 0 14 -53 -22 -106 -22
-33 -28 -53 -26 -81 l3 -38 430 0 430 0 3 38 c2 21 -2 45 -9 54 -14 16 -36 52
-42 68 -2 6 -10 26 -18 45 -11 28 -15 146 -19 575 -4 406 -8 545 -17 562 -7
12 -13 31 -13 42 0 10 -7 32 -14 48 -8 15 -18 35 -21 43 -30 75 -182 239 -244
262 -11 4 -22 11 -26 17 -3 6 -14 11 -24 11 -10 0 -24 7 -31 15 -7 8 -20 15
-30 15 -10 0 -31 7 -46 15 -16 8 -39 15 -50 15 -12 0 -41 7 -64 15 -33 12 -91
15 -269 14 -124 -1 -242 -5 -261 -11z m418 -1120 l2 -276 -32 -42 c-35 -45
-77 -72 -143 -90 -50 -13 -104 4 -149 48 -39 38 -66 138 -47 178 6 14 11 40
11 58 0 17 7 41 15 52 8 10 15 24 15 31 1 41 161 227 253 294 73 53 72 59 75
-253z"/>
<path d="M5845 2983 c-11 -3 -24 -9 -29 -14 -6 -5 -24 -9 -41 -9 -17 0 -40 -7
-51 -15 -10 -8 -27 -15 -36 -15 -51 -1 -268 -174 -268 -214 0 -7 -7 -19 -15
-26 -8 -7 -15 -20 -15 -30 0 -10 -7 -31 -15 -46 -21 -41 -22 -312 0 -340 8
-10 15 -27 15 -36 0 -36 66 -142 125 -202 74 -75 188 -152 340 -231 28 -14 64
-35 80 -45 17 -11 39 -24 50 -29 34 -16 136 -104 179 -154 39 -47 40 -49 40
-130 1 -75 -1 -85 -27 -119 -46 -60 -86 -78 -173 -78 -55 0 -84 5 -111 20 -48
26 -113 80 -113 96 0 6 -7 17 -15 24 -8 7 -15 22 -15 34 0 11 -7 30 -15 40
-21 27 -20 147 1 188 23 45 9 53 -99 52 -82 -1 -97 -4 -140 -29 -30 -17 -60
-45 -78 -74 -25 -40 -29 -56 -29 -122 0 -51 5 -81 15 -95 8 -10 15 -25 15 -32
0 -23 49 -79 103 -120 50 -37 175 -102 198 -102 6 0 32 -7 58 -14 50 -16 193
-36 256 -36 147 0 428 59 467 98 7 7 18 12 26 12 23 0 140 94 174 141 41 55
57 80 64 99 3 8 11 29 19 45 25 53 36 229 20 313 -20 110 -96 206 -245 312
-69 48 -81 56 -150 92 -25 13 -63 35 -85 49 -22 14 -56 34 -75 45 -39 21 -150
103 -177 131 -28 27 -67 83 -91 131 -18 35 -22 60 -22 139 l0 96 45 44 c43 41
48 43 105 43 42 0 72 -7 102 -22 51 -26 138 -112 138 -136 0 -9 8 -26 16 -37
11 -15 15 -40 13 -100 -2 -44 0 -86 4 -92 5 -8 25 -10 60 -6 60 7 141 55 181
108 24 30 26 42 26 123 l0 90 -48 48 c-47 48 -73 69 -102 80 -8 3 -27 12 -42
20 -14 8 -37 14 -50 14 -12 0 -41 7 -63 15 -31 11 -92 14 -260 13 -121 0 -229
-2 -240 -5z"/>
<path d="M3543 643 c-10 -4 -13 -76 -13 -313 0 -264 2 -309 15 -314 8 -3 22
-3 30 0 13 5 15 50 15 314 0 272 -2 309 -16 314 -9 3 -16 6 -17 5 -1 0 -8 -3
-14 -6z"/>
<path d="M4157 630 c-81 -29 -147 -108 -147 -176 0 -48 59 -134 93 -134 10 0
33 -6 50 -14 18 -8 64 -17 102 -20 93 -6 159 -26 184 -55 76 -87 -71 -193
-219 -158 -64 14 -120 64 -120 107 0 35 -23 54 -54 46 -34 -8 -38 -27 -17 -86
22 -61 71 -115 115 -125 40 -10 220 -10 267 0 62 12 129 100 129 170 0 62 -53
135 -98 135 -11 0 -33 7 -48 15 -16 8 -55 15 -89 15 -66 0 -153 26 -185 55
-14 13 -20 31 -20 61 0 37 5 46 32 66 18 12 57 31 87 41 51 17 56 17 105 1 64
-23 106 -59 106 -94 0 -40 21 -62 55 -58 23 2 31 9 33 27 8 50 -69 171 -108
171 -9 0 -25 7 -36 15 -26 20 -155 17 -217 -5z"/>
<path d="M5115 631 c-59 -19 -175 -126 -175 -163 -1 -13 -7 -34 -15 -48 -19
-33 -19 -151 0 -197 8 -19 15 -43 15 -52 0 -24 82 -114 121 -133 80 -39 186
-47 284 -23 40 10 111 68 141 117 47 73 18 162 -36 113 -10 -9 -22 -31 -26
-48 -7 -35 -42 -87 -58 -87 -5 0 -17 -7 -27 -16 -14 -13 -39 -16 -107 -16 -78
0 -94 3 -123 23 -80 57 -109 116 -109 222 0 112 25 164 105 216 35 23 50 26
125 26 67 0 91 -4 115 -19 42 -28 74 -67 75 -93 0 -12 4 -34 10 -48 8 -22 15
-26 42 -23 28 3 33 7 36 33 2 17 -6 51 -18 77 -21 49 -101 128 -129 128 -9 0
-25 7 -35 15 -26 20 -145 17 -211 -4z"/>
<path d="M6054 635 c-10 -8 -29 -15 -41 -15 -13 0 -39 -20 -67 -52 -44 -50
-46 -55 -46 -114 0 -56 3 -64 33 -94 42 -41 92 -59 187 -70 138 -16 180 -30
207 -72 l25 -37 -21 -34 c-31 -50 -50 -62 -121 -76 -47 -9 -73 -9 -93 -2 -16
6 -38 11 -50 11 -28 0 -77 48 -77 76 0 32 -38 76 -64 72 -51 -7 -19 -133 47
-180 18 -13 48 -29 67 -35 42 -15 216 -17 225 -3 3 5 19 10 34 10 20 0 41 12
70 41 41 41 41 41 41 118 0 73 -2 79 -30 106 -36 34 -97 54 -200 64 -41 5 -86
13 -100 19 -14 6 -37 13 -52 16 -53 12 -60 119 -9 153 14 10 51 26 81 35 51
16 59 16 105 2 60 -19 112 -72 117 -118 3 -28 6 -31 38 -31 39 0 40 7 23 88
-9 41 -65 107 -92 107 -9 0 -25 7 -35 15 -27 21 -175 21 -202 0z"/>
<path d="M2570 330 c0 -241 3 -310 13 -310 6 -1 88 0 180 0 160 1 171 2 207
25 49 31 110 106 110 136 1 13 7 35 15 49 21 37 18 130 -6 205 -24 71 -72 135
-122 160 -55 29 -157 45 -279 45 l-118 0 0 -310z m330 213 c90 -59 120 -116
120 -222 0 -64 -5 -89 -25 -128 -27 -54 -43 -70 -95 -97 -29 -14 -56 -17 -150
-14 l-115 3 -3 225 c-1 123 0 230 2 237 8 21 234 18 266 -4z"/>
</g>
</svg>
