<?xml version="1.0" standalone="no"?>
<!DOCTYPE svg PUBLIC "-//W3C//DTD SVG 20010904//EN"
 "http://www.w3.org/TR/2001/REC-SVG-20010904/DTD/svg10.dtd">
<svg version="1.0" xmlns="http://www.w3.org/2000/svg"
 width="300.000000pt" height="152.000000pt" viewBox="0 0 300.000000 152.000000"
 preserveAspectRatio="xMidYMid meet">
<metadata>
Created by potrace 1.10, written by Peter Selinger 2001-2011
</metadata>
<g transform="translate(0.000000,152.000000) scale(0.050000,-0.050000)"
fill="#000000" stroke="none">
<path d="M720 1890 l0 -890 289 0 c555 0 571 25 571 884 -1 867 -18 893 -585
895 l-275 1 0 -890z m543 597 c34 -31 37 -76 37 -596 0 -658 7 -634 -177 -647
l-123 -9 0 643 0 642 113 0 c78 0 125 -10 150 -33z"/>
<path d="M1913 2752 c-230 -86 -243 -130 -243 -862 l0 -620 50 -89 c122 -219
504 -255 665 -63 77 92 92 172 99 537 l6 325 -195 0 -195 0 0 -120 c0 -120 0
-120 60 -120 l60 0 0 -210 c0 -269 -87 -367 -231 -262 -60 44 -71 1140 -13
1212 107 132 244 35 244 -173 l0 -147 129 0 c155 0 148 -11 130 206 -27 330
-270 496 -566 386z"/>
<path d="M2780 2761 c0 -28 -192 -1246 -240 -1522 -22 -127 -40 -235 -40 -240
0 -5 58 -9 129 -9 145 0 132 -17 163 225 l13 105 178 0 c152 0 177 -5 177 -33
0 -19 10 -90 22 -159 l22 -125 138 -6 c105 -5 138 -1 138 20 0 14 -31 212 -69
440 -38 227 -97 593 -131 813 -34 220 -66 425 -72 455 l-11 55 -209 0 c-121 0
-208 -8 -208 -19z m220 -369 c0 -58 91 -701 111 -777 l13 -55 -144 0 c-140 0
-144 1 -133 45 12 49 83 537 104 720 13 112 49 162 49 67z"/>
<path d="M3735 2760 c-398 -50 -407 -73 -323 -775 110 -919 562 -1593 903
-1347 341 248 589 926 619 1695 l12 302 -54 35 c-130 85 -790 137 -1157 90z
m0 -114 c-198 -52 363 -143 715 -116 77 6 190 16 250 21 l110 10 -60 -35
c-163 -93 -1230 -38 -1230 64 0 28 116 66 200 66 32 -1 37 -4 15 -10z m-146
-206 c50 -18 51 -24 51 -205 1 -509 171 -1130 388 -1414 61 -81 67 -68 14 35
-146 287 -259 791 -279 1240 l-13 306 70 -6 c64 -5 70 -11 67 -66 -16 -380 68
-1093 166 -1406 67 -212 72 -201 38 67 -41 313 -71 787 -71 1112 l0 279 71 -6
71 -6 -1 -829 c-1 -457 -9 -837 -17 -845 -85 -85 -421 476 -526 880 -69 264
-131 884 -89 884 4 0 31 -9 60 -20z m1093 -41 c44 -24 52 -277 15 -469 -11
-55 -24 -131 -29 -170 -18 -132 -92 -345 -200 -573 -142 -299 -147 -287 -147
299 1 277 0 578 -1 669 -3 205 -8 198 160 215 77 8 140 22 140 32 0 23 14 23
62 -3z"/>
<path d="M4690 1020 c-20 -33 44 -46 151 -32 121 16 121 25 21 -258 l-78 -220
-2032 -5 c-1788 -5 -2032 -9 -2032 -35 0 -26 245 -30 2058 -30 l2057 0 93 288
c50 158 92 293 92 300 0 21 -317 13 -330 -8z"/>
<path d="M720 740 c0 -147 6 -180 30 -180 21 0 30 21 30 68 0 51 10 70 40 78
22 6 40 20 40 32 0 12 -18 22 -40 22 -59 0 -56 95 3 104 83 12 66 56 -21 56
l-82 0 0 -180z"/>
<path d="M900 740 c0 -147 6 -180 30 -180 24 0 30 33 30 180 0 147 -6 180 -30
180 -24 0 -30 -33 -30 -180z"/>
<path d="M997 780 c-2 -77 -4 -155 -5 -173 -4 -70 46 -49 52 22 8 92 44 93 52
1 13 -149 62 -80 59 85 -2 176 -16 205 -97 205 l-58 0 -3 -140z m103 30 c0
-31 -11 -50 -30 -50 -19 0 -30 19 -30 50 0 31 11 50 30 50 19 0 30 -19 30 -50z"/>
<path d="M1201 883 c-30 -58 -28 -69 39 -153 56 -70 63 -110 19 -110 -11 0
-19 14 -19 30 0 17 -13 30 -30 30 -35 0 -38 -27 -9 -81 29 -55 116 -51 137 5
22 60 8 104 -50 158 -54 51 -63 98 -18 98 17 0 30 -9 30 -20 0 -11 10 -20 21
-20 12 0 19 20 15 45 -8 62 -104 74 -135 18z"/>
<path d="M1360 890 c0 -16 14 -30 30 -30 24 0 30 -30 30 -150 0 -120 6 -150
30 -150 24 0 30 30 30 150 0 120 6 150 30 150 17 0 30 14 30 30 0 22 -23 30
-90 30 -67 0 -90 -8 -90 -30z"/>
<path d="M1630 745 c1 -139 8 -175 31 -175 23 0 29 36 31 175 1 147 -4 175
-31 175 -27 0 -32 -28 -31 -175z"/>
<path d="M1731 746 c0 -205 43 -264 53 -72 l6 116 26 -115 c43 -187 84 -155
84 65 0 182 -32 252 -44 95 l-7 -85 -25 85 c-48 159 -94 115 -93 -89z"/>
<path d="M2020 740 l0 -180 55 0 c91 1 112 28 121 156 11 154 -15 204 -107
204 l-69 0 0 -180z m116 7 c-9 -163 -56 -170 -56 -9 0 97 6 122 31 122 25 0
30 -22 25 -113z"/>
<path d="M2220 740 c0 -147 6 -180 30 -180 24 0 30 33 30 180 0 147 -6 180
-30 180 -24 0 -30 -33 -30 -180z"/>
<path d="M2333 907 c-29 -30 -10 -128 37 -183 57 -68 64 -104 20 -104 -16 0
-30 14 -30 30 0 17 -9 30 -20 30 -11 0 -20 -22 -20 -50 0 -66 93 -94 133 -39
39 53 34 74 -34 160 -45 56 -54 81 -37 97 17 16 26 15 32 -3 12 -33 66 -32 66
1 0 57 -106 101 -147 61z"/>
<path d="M2524 896 c-32 -32 -32 -280 0 -312 61 -61 156 -1 156 97 0 36 -55
19 -66 -21 -22 -85 -54 -38 -54 80 0 93 7 120 30 120 17 0 30 -13 30 -30 0
-16 14 -30 30 -30 35 0 38 27 9 81 -23 44 -98 52 -135 15z"/>
<path d="M2780 869 c-66 -171 27 -375 130 -289 47 39 40 180 -9 180 -33 0 -37
-10 -27 -73 10 -57 6 -70 -16 -63 -37 12 -39 219 -3 231 14 5 25 -6 25 -23 0
-18 14 -32 30 -32 17 0 30 16 30 36 0 92 -128 118 -160 33z"/>
<path d="M2981 881 c-52 -97 -18 -296 55 -314 73 -19 104 36 104 183 0 160
-100 242 -159 131z m99 -141 c0 -93 -7 -120 -30 -120 -23 0 -30 27 -30 120 0
93 7 120 30 120 23 0 30 -27 30 -120z"/>
<path d="M3173 745 l6 -175 70 -6 c54 -5 71 1 71 25 0 20 -18 31 -50 31 -49 0
-50 3 -50 150 0 111 -7 150 -26 150 -20 0 -25 -41 -21 -175z"/>
<path d="M3340 740 c0 -147 6 -180 30 -180 21 0 30 21 30 68 0 51 10 70 40 78
22 6 40 20 40 32 0 12 -18 22 -40 22 -29 0 -40 13 -40 50 0 40 10 50 50 50 31
0 50 11 50 30 0 22 -22 30 -80 30 l-80 0 0 -180z"/>
</g>
</svg>
