<?xml version="1.0" standalone="no"?>
<!DOCTYPE svg PUBLIC "-//W3C//DTD SVG 20010904//EN"
 "http://www.w3.org/TR/2001/REC-SVG-20010904/DTD/svg10.dtd">
<svg version="1.0" xmlns="http://www.w3.org/2000/svg"
 width="300.000000pt" height="110.000000pt" viewBox="0 0 300.000000 110.000000"
 preserveAspectRatio="xMidYMid meet">
<metadata>
Created by potrace 1.10, written by Peter Selinger 2001-2011
</metadata>
<g transform="translate(0.000000,110.000000) scale(0.050000,-0.050000)"
fill="#000000" stroke="none">
<path d="M2173 1859 c-120 -10 -264 -28 -320 -39 -57 -12 -184 -35 -283 -51
-297 -48 -470 -160 -470 -305 l0 -60 -209 -7 c-273 -9 -257 11 -382 -484 -113
-446 -114 -509 -3 -552 89 -33 1483 -24 1585 10 80 27 99 27 180 0 173 -59
738 -44 803 21 l52 53 36 -48 c58 -77 523 -72 580 6 l39 53 58 -58 c58 -58 59
-58 307 -58 302 0 333 16 372 189 l25 111 98 0 c55 0 99 -4 99 -9 0 -4 -9 -33
-21 -63 -53 -141 42 -228 251 -228 210 0 239 25 297 250 79 312 65 284 155
296 115 15 148 54 178 212 40 213 -14 302 -185 302 -26 0 -56 8 -66 18 -63 59
-654 239 -1059 322 -553 114 -1526 168 -2117 119z m1157 -160 c671 -44 1423
-196 1837 -369 142 -60 61 -51 -180 18 -679 195 -1544 256 -2311 161 -239 -30
-700 -117 -736 -139 -32 -20 -23 7 22 69 52 70 38 124 -47 178 l-63 40 49 12
c176 41 1001 59 1429 30z m-1474 -122 c62 -23 76 -71 34 -117 -123 -135 -630
-153 -630 -22 0 129 381 219 596 139z m-563 -389 c141 -105 21 -581 -167 -661
-69 -29 -546 -40 -546 -12 0 8 41 173 89 365 49 193 90 353 90 357 3 31 486
-13 534 -49z m367 34 c0 -7 -39 -169 -88 -362 l-87 -350 -104 -6 c-78 -5 -103
0 -97 20 3 14 41 170 83 346 43 176 80 331 84 344 7 24 209 31 209 8z m612
-65 c-19 -118 -17 -117 -209 -117 -164 0 -223 -17 -223 -64 0 -9 68 -16 150
-16 265 0 327 -244 104 -409 -83 -60 -588 -77 -566 -18 8 20 20 62 26 92 l11
55 185 0 c150 0 194 7 231 37 69 55 33 83 -108 83 -192 0 -267 87 -214 247 49
148 140 189 429 191 l197 2 -13 -83z m608 68 c0 -8 -9 -48 -21 -89 l-20 -74
-154 -6 -155 -6 -33 -125 c-19 -68 -40 -153 -48 -188 l-14 -63 165 14 164 13
-14 -85 c-20 -120 -14 -116 -198 -116 -322 0 -349 34 -280 351 56 257 91 344
153 368 54 22 455 27 455 6z m544 -6 c233 -65 180 -419 -63 -419 -56 0 -52
-24 23 -129 l63 -90 192 324 192 325 129 0 c100 0 130 -7 133 -30 3 -16 15
-163 28 -326 14 -162 29 -291 34 -286 5 6 43 150 82 322 l73 312 575 4 c630 4
585 14 558 -116 -12 -56 -20 -61 -121 -70 l-109 -10 -69 -265 -70 -265 -109 0
c-92 0 -107 5 -97 32 7 18 35 124 63 235 28 112 56 219 61 239 10 33 -8 35
-255 30 -224 -5 -267 -11 -273 -37 -5 -28 18 -31 165 -23 187 10 184 12 159
-113 l-13 -62 -181 -5 -181 -6 -32 -140 -31 -140 -205 -6 -205 -5 0 80 0 81
-116 0 c-115 0 -117 -1 -162 -80 l-45 -80 -167 0 -168 0 -114 160 c-63 88
-118 156 -123 152 -4 -4 -23 -74 -42 -155 l-34 -147 -104 -6 c-58 -3 -105 -1
-105 6 0 11 116 482 162 655 l20 75 204 0 c112 0 237 -9 278 -21z"/>
<path d="M877 875 l-49 -185 109 -6 c133 -8 136 -5 184 178 53 206 57 198 -78
198 l-117 0 -49 -185z"/>
<path d="M3089 1018 c-19 -61 24 -82 141 -68 198 24 198 110 0 110 -112 0
-129 -5 -141 -42z"/>
<path d="M3855 918 c-47 -82 -44 -98 15 -98 45 0 50 8 50 80 0 96 -18 101 -65
18z"/>
</g>
</svg>
