<?xml version="1.0" standalone="no"?>
<!DOCTYPE svg PUBLIC "-//W3C//DTD SVG 20010904//EN"
 "http://www.w3.org/TR/2001/REC-SVG-20010904/DTD/svg10.dtd">
<svg version="1.0" xmlns="http://www.w3.org/2000/svg"
 width="300.000000pt" height="300.000000pt" viewBox="0 0 300.000000 300.000000"
 preserveAspectRatio="xMidYMid meet">
<metadata>
Created by potrace 1.10, written by Peter Selinger 2001-2011
</metadata>
<g transform="translate(0.000000,300.000000) scale(0.100000,-0.100000)"
fill="#000000" stroke="none">
<path d="M1370 2139 c-186 -52 -313 -79 -381 -79 -37 0 -70 -5 -77 -12 -19
-19 -16 -561 3 -653 43 -202 216 -386 492 -521 l93 -46 90 45 c237 119 404
276 472 446 22 54 23 70 26 393 l3 337 -33 5 c-18 3 -59 8 -91 11 -32 3 -146
28 -253 55 -106 28 -204 50 -216 49 -13 0 -70 -14 -128 -30z m329 -54 c154
-43 258 -65 311 -65 l40 0 0 -305 c0 -282 -2 -310 -21 -367 -55 -163 -203
-312 -427 -426 l-101 -53 -68 31 c-174 79 -364 240 -430 366 -58 109 -63 147
-63 466 l0 288 44 0 c66 0 196 26 351 70 164 47 181 47 364 -5z"/>
<path d="M1310 2055 c-91 -25 -205 -50 -253 -57 l-88 -12 3 -300 3 -301 32
-68 c38 -80 54 -101 136 -185 68 -70 185 -152 288 -202 l66 -33 80 40 c238
119 406 298 442 471 6 31 11 162 11 315 l0 263 -82 11 c-46 7 -150 30 -232 53
-207 57 -212 57 -406 5z m126 -126 c24 -27 9 -53 -35 -57 -53 -5 -78 29 -45
62 22 22 57 20 80 -5z m-146 -149 l0 -160 30 0 30 0 0 95 c0 76 -3 97 -15 101
-8 4 -15 12 -15 20 0 10 15 14 60 14 l59 0 3 -112 c3 -98 5 -113 21 -116 14
-3 17 4 17 32 0 46 27 49 59 5 37 -50 111 -63 111 -19 0 18 -40 42 -92 55 -69
17 -99 87 -59 136 17 21 27 24 78 22 32 -1 75 -2 96 -2 l37 -1 0 -45 c0 -62
-21 -69 -64 -21 -34 36 -58 44 -85 27 -24 -15 -4 -38 49 -56 28 -9 63 -28 79
-41 l28 -24 7 48 c11 81 57 122 136 122 74 0 125 -46 106 -95 -8 -23 -53 -37
-77 -24 -28 15 -21 52 11 59 22 5 23 7 7 13 -25 9 -49 9 -65 -2 -37 -23 -36
-173 1 -192 29 -16 64 3 72 40 5 24 12 31 31 31 27 0 29 -12 13 -58 -28 -80
-170 -80 -219 0 -16 27 -20 29 -20 12 0 -55 -98 -91 -161 -60 -21 11 -35 13
-37 6 -5 -14 -322 -14 -322 1 0 5 -10 3 -22 -5 -46 -33 -118 -8 -137 45 -15
44 -14 123 3 163 24 58 86 83 137 56 17 -10 19 -7 19 20 0 20 -5 30 -15 30 -8
0 -15 9 -15 20 0 18 7 20 60 20 l60 0 0 -160z m465 -200 c4 -6 1 -17 -5 -25
-9 -11 -9 -15 -1 -15 7 0 11 -25 11 -69 0 -39 5 -73 10 -76 6 -3 10 3 10 15 0
16 13 27 56 46 56 25 67 46 27 52 -15 2 -21 -2 -19 -15 1 -24 -49 -31 -57 -8
-17 44 82 74 131 39 19 -13 22 -24 22 -76 0 -54 2 -60 13 -43 9 12 16 14 21 7
10 -17 -32 -55 -52 -46 -9 4 -28 6 -42 5 -14 -2 -36 -3 -50 -3 -14 1 -70 1
-125 1 l-101 0 4 71 c4 69 0 78 -27 61 -10 -6 -12 -25 -9 -70 l4 -61 -55 -2
c-31 0 -63 0 -71 1 -8 2 -26 2 -40 2 -62 -2 -185 1 -190 5 -2 3 1 9 8 13 19
12 12 116 -8 116 -12 0 -15 -14 -15 -68 l0 -67 -42 0 c-24 0 -43 5 -43 10 0 6
5 10 10 10 14 0 13 107 -2 116 -6 4 -17 -1 -25 -11 -15 -22 -18 -91 -3 -100
23 -14 7 -25 -35 -25 -25 0 -45 5 -45 10 0 6 5 10 10 10 6 0 10 27 10 60 0 33
-4 60 -10 60 -5 0 -10 7 -10 15 0 19 66 21 73 3 4 -10 7 -10 18 0 17 15 61 16
77 0 9 -9 15 -9 24 0 19 19 66 15 78 -7 5 -11 10 -41 10 -68 1 -36 3 -44 10
-31 6 9 30 24 55 34 31 11 45 22 45 35 0 12 -7 19 -19 19 -12 0 -18 -7 -17
-17 2 -25 -52 -31 -61 -7 -10 26 31 54 78 54 57 0 79 -26 80 -97 1 -32 3 -50
6 -40 2 9 8 17 13 17 5 0 11 -8 13 -17 3 -10 5 10 6 44 0 34 -4 65 -9 68 -6 4
-8 11 -5 16 8 12 62 12 69 0 4 -5 19 -4 36 2 50 19 64 2 68 -77 2 -57 6 -67
20 -64 13 2 18 16 20 61 2 35 -1 57 -8 57 -5 0 -10 7 -10 15 0 8 5 15 11 15 8
0 8 4 -1 15 -16 19 -4 35 25 35 13 0 27 -5 30 -10z m245 -27 c0 -7 -9 -13 -20
-13 -11 0 -20 6 -20 13 0 9 -2 9 -9 -1 -7 -11 -9 -10 -14 2 -5 14 0 16 28 14
21 -1 35 -7 35 -15z m-428 -307 c-2 -27 -10 -62 -18 -77 -19 -37 -18 -39 12
-39 20 0 25 -4 20 -16 -3 -9 -6 -22 -6 -30 0 -10 -12 -14 -40 -14 l-40 0 -2
-57 -2 -58 -3 57 -4 57 -37 3 c-32 3 -37 7 -40 31 -3 23 0 27 22 27 l25 0 -19
43 c-11 23 -20 61 -20 85 l0 43 78 -3 77 -3 -3 -49z"/>
<path d="M1130 1791 c-5 -11 -10 -45 -10 -76 0 -65 13 -95 40 -95 11 0 24 9
30 19 11 21 14 129 4 155 -9 22 -51 20 -64 -3z"/>
<path d="M1379 1431 c-19 -15 -21 -22 -12 -32 18 -18 43 -3 43 26 0 30 -1 30
-31 6z"/>
<path d="M1851 1429 c-15 -15 -19 -25 -13 -31 17 -17 42 -1 42 27 0 30 0 30
-29 4z"/>
</g>
</svg>
