<?xml version="1.0" standalone="no"?>
<!DOCTYPE svg PUBLIC "-//W3C//DTD SVG 20010904//EN"
 "http://www.w3.org/TR/2001/REC-SVG-20010904/DTD/svg10.dtd">
<svg version="1.0" xmlns="http://www.w3.org/2000/svg"
 width="300.000000pt" height="167.000000pt" viewBox="0 0 300.000000 167.000000"
 preserveAspectRatio="xMidYMid meet">
<metadata>
Created by potrace 1.10, written by Peter Selinger 2001-2011
</metadata>
<g transform="translate(0.000000,167.000000) scale(0.050000,-0.050000)"
fill="#000000" stroke="none">
<path d="M2887 2461 c-35 -21 -69 -57 -77 -80 -14 -46 -64 -77 -177 -111 l-77
-23 112 -84 c62 -46 112 -88 112 -92 0 -4 -50 -113 -110 -242 -128 -271 -129
-260 20 -222 140 37 121 10 176 245 52 220 46 274 -34 311 l-49 22 89 108 c51
63 88 129 88 158 0 59 5 58 -73 10z"/>
<path d="M3020 2470 c0 -50 37 -112 117 -196 65 -68 69 -79 39 -96 -109 -61
-112 -79 -53 -340 l42 -193 120 -33 c155 -43 153 -56 27 224 l-108 242 113 85
112 85 -88 26 c-90 26 -181 95 -181 136 0 20 -25 37 -125 86 -8 4 -15 -8 -15
-26z"/>
<path d="M1632 1884 c218 -142 342 -304 376 -489 16 -85 14 -84 122 -46 44 16
114 30 155 30 107 1 96 26 -90 210 -215 211 -433 348 -578 363 l-107 12 122
-80z"/>
<path d="M4287 1941 c-101 -24 -345 -197 -512 -364 -177 -176 -185 -197 -78
-197 43 0 117 -14 164 -30 93 -33 118 -21 119 60 3 130 194 372 375 474 138
79 113 100 -68 57z"/>
<path d="M2550 1824 c-65 -36 -344 -47 -425 -18 -25 9 -45 9 -45 -1 0 -129
368 -142 513 -18 66 57 38 81 -43 37z"/>
<path d="M3387 1792 c144 -118 461 -129 511 -18 21 45 19 49 -12 36 -83 -34
-304 -35 -404 -3 -136 45 -163 40 -95 -15z"/>
<path d="M120 1030 l0 -190 196 0 c262 0 284 15 284 197 0 179 -5 183 -264
183 l-216 0 0 -190z m360 10 l0 -80 -120 0 -120 0 0 80 0 80 120 0 120 0 0
-80z"/>
<path d="M719 1103 c82 -94 101 -130 101 -190 0 -70 3 -73 70 -73 68 0 70 3
70 75 0 61 17 96 90 179 50 56 90 108 90 114 0 18 -160 15 -161 -3 0 -8 -21
-40 -46 -71 l-46 -56 -49 71 c-42 63 -58 71 -134 71 l-87 0 102 -117z"/>
<path d="M1180 1030 l0 -190 59 0 c59 0 59 0 65 132 l6 132 99 -132 c99 -130
101 -132 195 -132 l96 0 0 190 0 190 -59 0 c-58 0 -59 -2 -65 -122 l-6 -123
-95 123 c-94 121 -96 122 -195 122 l-100 0 0 -190z"/>
<path d="M1898 1176 c-13 -25 -59 -111 -103 -191 l-79 -145 72 0 c69 0 75 6
136 130 72 145 80 151 112 80 20 -44 18 -50 -14 -50 -35 0 -62 -36 -62 -84 0
-12 27 -15 69 -8 57 11 73 6 91 -27 15 -29 41 -41 91 -41 85 0 87 -20 -28 192
-108 200 -224 259 -285 144z"/>
<path d="M2300 1030 l0 -190 60 0 60 0 1 125 1 125 63 -125 c84 -166 129 -169
193 -15 63 152 84 155 69 11 l-13 -121 63 0 63 0 0 190 0 190 -91 0 c-91 0
-92 -1 -138 -105 l-47 -105 -22 55 c-12 30 -31 78 -42 105 -17 44 -31 50 -120
50 l-100 0 0 -190z"/>
<path d="M2916 1030 l7 -190 58 0 59 0 0 190 0 190 -65 0 -65 0 6 -190z"/>
<path d="M3120 1200 c-39 -24 -42 -286 -4 -324 16 -17 95 -29 215 -33 l189 -7
0 62 0 62 -160 0 -160 0 0 80 0 80 160 0 c157 0 160 1 160 50 0 54 -324 78
-400 30z"/>
<path d="M3780 1030 l0 -190 189 0 c281 0 291 7 291 186 0 192 -3 194 -264
194 l-216 0 0 -190z m380 10 l0 -80 -130 0 -130 0 0 80 0 80 130 0 130 0 0
-80z"/>
<path d="M4309 1035 l1 -185 65 -6 65 -7 0 192 0 191 -66 0 -66 0 1 -185z"/>
<path d="M4504 1196 c-91 -91 -13 -192 155 -200 200 -9 186 -56 -17 -56 -168
0 -215 -30 -123 -79 137 -74 401 -12 401 95 0 106 -26 124 -186 124 -101 0
-135 7 -129 25 6 17 56 25 151 26 156 1 183 12 144 59 -32 38 -359 43 -396 6z"/>
<path d="M4984 1196 c-53 -53 -30 -315 29 -337 115 -44 377 -15 377 41 0 49
-4 50 -165 56 l-165 6 0 79 0 79 160 0 c88 0 160 8 160 18 0 10 5 33 12 50 16
41 -368 48 -408 8z"/>
<path d="M5444 1196 c-91 -91 -13 -192 155 -200 200 -9 186 -56 -17 -56 -170
0 -215 -30 -120 -81 53 -28 347 -18 378 13 97 97 9 208 -164 208 -103 0 -137
7 -131 25 6 18 55 24 162 21 110 -2 153 4 153 21 0 56 -51 73 -220 73 -107 0
-181 -9 -196 -24z"/>
</g>
</svg>
