<?xml version="1.0" standalone="no"?>
<!DOCTYPE svg PUBLIC "-//W3C//DTD SVG 20010904//EN"
 "http://www.w3.org/TR/2001/REC-SVG-20010904/DTD/svg10.dtd">
<svg version="1.0" xmlns="http://www.w3.org/2000/svg"
 width="300.000000pt" height="42.000000pt" viewBox="0 0 300.000000 42.000000"
 preserveAspectRatio="xMidYMid meet">
<metadata>
Created by potrace 1.10, written by Peter Selinger 2001-2011
</metadata>
<g transform="translate(0.000000,42.000000) scale(0.050000,-0.050000)"
fill="#000000" stroke="none">
<path d="M3245 821 c-236 -58 -386 -337 -296 -552 40 -95 41 -92 41 99 0 280
134 404 430 399 155 -3 165 -1 110 22 -84 37 -208 51 -285 32z"/>
<path d="M3367 705 c-62 -51 -93 -122 -80 -187 12 -56 10 -58 -69 -58 -250 0
-296 -315 -56 -391 116 -37 238 69 238 207 0 86 1 87 59 74 179 -39 301 204
168 337 -63 64 -192 72 -260 18z m182 -76 c82 -83 20 -195 -103 -185 -69 5
-77 12 -82 70 -11 113 111 189 185 115z m-281 -261 c39 -15 44 -148 8 -184
-34 -34 -127 -30 -165 7 -89 89 32 225 157 177z"/>
<path d="M112 685 c-5 -19 -29 -141 -52 -271 -23 -130 -47 -250 -53 -265 -8
-21 5 -29 51 -29 34 0 62 2 63 5 0 3 25 138 56 300 l56 295 -55 0 c-35 0 -59
-13 -66 -35z"/>
<path d="M290 675 c-5 -25 -27 -135 -48 -245 -21 -110 -45 -225 -52 -255 -13
-51 -10 -55 46 -55 67 0 72 10 94 160 26 178 33 179 90 10 44 -132 61 -161 99
-167 68 -10 75 5 130 287 63 324 63 314 -4 306 -52 -6 -56 -15 -82 -161 -32
-184 -41 -183 -103 14 -51 164 -143 221 -170 106z"/>
<path d="M770 695 c-10 -33 -110 -536 -110 -558 0 -72 118 -10 130 68 24 153
25 155 119 155 73 0 88 7 98 45 20 73 17 75 -77 75 -94 0 -97 2 -77 75 11 41
23 45 157 45 149 0 170 12 170 92 0 38 -397 41 -410 3z"/>
<path d="M1230 695 c-11 -30 -110 -535 -110 -559 0 -21 95 -21 108 1 12 19
112 518 112 558 0 14 -23 25 -51 25 -27 0 -54 -11 -59 -25z"/>
<path d="M1426 695 c-10 -14 -40 -137 -65 -275 -26 -137 -51 -261 -56 -275 -6
-17 11 -25 52 -25 66 0 71 10 93 160 26 178 33 179 90 10 66 -197 165 -247
191 -96 7 42 30 166 51 276 49 258 49 254 -17 246 -52 -6 -56 -15 -82 -161
-32 -184 -41 -183 -103 14 -48 154 -100 197 -154 126z"/>
<path d="M1906 695 c-10 -14 -40 -137 -65 -275 -26 -137 -51 -261 -56 -275 -6
-17 11 -25 52 -25 70 0 65 -12 123 300 23 127 47 246 52 265 13 42 -75 51
-106 10z"/>
<path d="M2061 681 c-35 -64 -24 -81 49 -81 83 0 83 7 30 -264 -22 -113 -40
-208 -40 -211 0 -3 26 -5 59 -5 68 0 65 -5 113 275 l35 205 67 0 c60 0 106 48
106 111 0 34 -400 6 -419 -30z"/>
<path d="M2545 695 c-10 -14 -39 -128 -63 -255 -25 -126 -50 -250 -56 -275
-14 -59 399 -72 422 -13 31 80 17 88 -140 88 -131 0 -151 4 -140 32 7 17 12
44 12 60 0 20 25 28 88 28 62 0 91 9 100 32 28 72 14 88 -76 88 -87 0 -88 1
-74 55 14 52 21 55 163 65 145 10 149 12 155 65 l7 55 -189 0 c-128 0 -195 -8
-209 -25z"/>
<path d="M3908 696 c-8 -13 -39 -148 -68 -300 l-53 -276 173 0 c222 0 247 23
294 263 38 200 27 265 -53 307 -70 36 -272 40 -293 6z m226 -129 c7 -18 0 -97
-16 -175 l-28 -142 -85 -6 c-47 -4 -85 1 -85 10 0 9 14 87 30 173 17 86 30
160 30 165 0 27 143 4 154 -25z"/>
<path d="M4401 675 c-10 -25 -39 -160 -65 -300 l-47 -255 56 0 c67 0 65 -5
114 260 21 116 45 239 52 275 18 82 -78 100 -110 20z"/>
<path d="M4660 694 c-162 -82 -111 -334 68 -334 78 0 100 -22 82 -80 -11 -35
-30 -40 -151 -40 -138 0 -179 -23 -179 -99 0 -47 333 -25 392 25 119 103 54
286 -110 308 -77 11 -84 16 -78 64 6 50 12 52 154 62 145 10 203 46 168 105
-14 25 -292 16 -346 -11z"/>
<path d="M5131 675 c-50 -44 -111 -267 -111 -408 0 -123 345 -226 388 -115 30
79 16 88 -128 88 -160 0 -156 -7 -117 192 31 160 40 168 190 168 125 0 167 28
167 111 0 37 -342 5 -389 -36z"/>
<path d="M5638 690 c-155 -84 -111 -305 64 -328 77 -11 88 -18 88 -62 0 -48
-5 -50 -146 -56 -143 -6 -184 -31 -184 -115 0 -39 357 -5 397 38 114 121 54
285 -112 307 -171 23 -98 126 90 126 124 0 187 44 151 105 -15 27 -293 15
-348 -15z"/>
<path d="M3697 447 c-12 -267 -128 -386 -394 -407 -141 -11 -147 -13 -77 -28
288 -62 523 117 523 398 0 200 -43 230 -52 37z"/>
</g>
</svg>
