<?xml version="1.0" standalone="no"?>
<!DOCTYPE svg PUBLIC "-//W3C//DTD SVG 20010904//EN"
 "http://www.w3.org/TR/2001/REC-SVG-20010904/DTD/svg10.dtd">
<svg version="1.0" xmlns="http://www.w3.org/2000/svg"
 width="300.000000pt" height="88.000000pt" viewBox="0 0 300.000000 88.000000"
 preserveAspectRatio="xMidYMid meet">
<metadata>
Created by potrace 1.10, written by Peter Selinger 2001-2011
</metadata>
<g transform="translate(0.000000,88.000000) scale(0.050000,-0.050000)"
fill="#000000" stroke="none">
<path d="M873 1677 c-29 -17 -293 -530 -293 -569 0 -18 165 -7 203 14 32 17
297 526 297 570 0 18 -172 5 -207 -15z"/>
<path d="M1210 1675 c-28 -16 -290 -527 -290 -566 0 -18 164 -8 203 13 23 12
79 104 126 205 l85 183 62 -201 63 -202 132 5 c73 2 141 12 152 23 19 19 277
540 277 559 0 6 -50 7 -110 2 -130 -11 -139 -21 -232 -241 -76 -180 -73 -181
-148 59 l-57 184 -114 -2 c-63 -1 -130 -10 -149 -21z"/>
<path d="M2130 1675 c-27 -15 -290 -530 -290 -568 0 -19 172 0 212 24 22 14
71 96 108 182 37 86 73 164 80 173 8 9 42 -73 77 -181 l62 -197 129 2 c136 3
181 25 204 97 7 24 62 141 121 260 59 119 107 222 107 228 0 5 -50 6 -110 1
-130 -11 -139 -21 -232 -241 -76 -180 -73 -181 -148 59 l-57 184 -114 -2 c-63
-1 -130 -10 -149 -21z"/>
<path d="M3034 1641 c-124 -109 -236 -437 -174 -511 36 -43 496 -43 579 0 145
74 293 455 210 539 -66 65 -533 44 -615 -28z m446 -137 c0 -19 -20 -76 -45
-125 l-45 -89 -185 -6 c-211 -6 -210 -8 -136 151 l49 105 181 0 c161 0 181 -4
181 -36z"/>
<path d="M3775 1675 c-28 -21 -34 -69 -37 -295 l-3 -270 78 -7 c172 -14 240
41 656 533 l59 70 -129 -11 c-141 -13 -120 3 -376 -285 l-106 -120 13 205 13
205 -68 0 c-37 0 -82 -11 -100 -25z"/>
<path d="M4676 1686 c-57 -9 -89 -40 -383 -369 -203 -225 -203 -225 -72 -212
86 8 115 22 186 92 75 74 95 83 180 83 l96 0 -6 -85 c-6 -76 -2 -86 40 -92
100 -14 143 12 143 87 0 80 -2 80 91 41 209 -87 -75 -316 -612 -492 -800 -263
-2373 -398 -3135 -270 -386 65 -411 117 -144 289 137 88 96 105 -81 33 -603
-245 -576 -527 63 -659 1012 -209 3013 39 3928 487 614 300 663 638 100 693
-66 7 -138 15 -160 17 -37 5 -40 20 -40 183 l0 178 -70 2 c-39 2 -94 -1 -124
-6z m4 -276 l0 -90 -81 0 -81 0 75 90 c42 50 78 90 81 90 3 0 6 -40 6 -90z"/>
<path d="M4934 1445 c24 -69 34 -74 48 -25 12 43 14 44 16 9 3 -62 122 -61
122 1 0 38 -12 44 -100 47 -87 3 -97 -1 -86 -32z"/>
<path d="M1253 987 c-7 -8 -13 -73 -13 -145 l0 -132 165 7 c91 4 176 16 190
28 42 34 32 210 -14 234 -42 23 -306 29 -328 8z m263 -132 l6 -75 -91 0 -91 0
0 81 0 81 85 -6 c83 -6 85 -8 91 -81z"/>
<path d="M1668 973 c-32 -85 2 -268 47 -251 65 24 69 278 4 278 -22 0 -45 -12
-51 -27z"/>
<path d="M1825 977 c-85 -85 -18 -157 147 -157 59 0 108 -9 108 -20 0 -11 -61
-20 -142 -20 -205 0 -179 -48 31 -56 173 -6 216 13 207 94 -6 50 -12 52 -141
58 -199 9 -194 64 7 64 104 0 139 7 133 25 -12 35 -317 45 -350 12z"/>
<path d="M2245 977 c-64 -64 -30 -234 50 -256 96 -27 217 -27 266 0 73 39 39
59 -101 59 l-140 0 0 83 0 82 141 -10 c122 -8 140 -6 135 23 -8 42 -312 58
-351 19z"/>
<path d="M2862 972 c-14 -17 -22 -73 -18 -135 l6 -107 157 -6 c175 -6 213 11
213 96 0 60 -108 90 -200 56 -64 -23 -46 -56 30 -56 39 0 70 -9 70 -20 0 -11
-40 -20 -90 -20 l-90 0 0 80 0 80 142 0 c104 0 139 7 133 25 -13 39 -322 45
-353 7z"/>
<path d="M3294 975 c-29 -21 -35 -49 -30 -136 l6 -109 157 -6 c198 -7 217 6
209 154 l-6 112 -150 6 c-101 4 -162 -3 -186 -21z m246 -115 l0 -80 -90 0 -90
0 0 80 0 80 90 0 90 0 0 -80z"/>
<path d="M3693 987 c-7 -8 -13 -71 -13 -140 l0 -127 138 0 c104 0 141 7 149
30 10 24 -8 30 -88 30 l-99 0 0 110 c0 107 -36 147 -87 97z"/>
<path d="M4013 987 c-40 -41 -13 -270 31 -263 28 4 49 25 56 56 11 42 22 49
75 44 67 -7 145 24 145 57 0 10 -49 19 -110 19 -60 0 -110 9 -110 20 0 11 56
20 128 20 89 0 135 9 152 30 26 32 -335 48 -367 17z"/>
</g>
</svg>
