<?xml version="1.0" standalone="no"?>
<!DOCTYPE svg PUBLIC "-//W3C//DTD SVG 20010904//EN"
 "http://www.w3.org/TR/2001/REC-SVG-20010904/DTD/svg10.dtd">
<svg version="1.0" xmlns="http://www.w3.org/2000/svg"
 width="300.000000pt" height="133.000000pt" viewBox="0 0 300.000000 133.000000"
 preserveAspectRatio="xMidYMid meet">
<metadata>
Created by potrace 1.10, written by Peter Selinger 2001-2011
</metadata>
<g transform="translate(0.000000,133.000000) scale(0.050000,-0.050000)"
fill="#000000" stroke="none">
<path d="M630 1768 c-244 -90 -374 -394 -268 -628 165 -366 642 -395 840 -51
218 381 -160 830 -572 679z m340 -65 c83 -38 154 -103 112 -103 -12 0 -22 -18
-22 -40 0 -31 13 -40 60 -40 33 0 60 -9 60 -20 0 -11 -27 -20 -60 -20 -46 0
-60 -9 -60 -39 0 -33 12 -39 73 -35 44 2 76 -6 81 -21 7 -17 -16 -25 -72 -25
-109 0 -116 -55 -9 -64 106 -9 113 -56 9 -56 -60 0 -82 -8 -82 -30 0 -20 20
-30 60 -30 40 0 60 -10 60 -30 0 -20 -20 -30 -60 -30 -60 0 -87 -48 -36 -65
65 -21 -105 -125 -240 -147 -101 -16 -261 35 -325 103 -40 42 -41 49 -11 49
56 0 25 49 -38 60 -88 15 -88 60 0 60 97 0 83 48 -17 56 -107 9 -100 64 9 64
105 0 97 47 -10 56 -94 8 -86 54 10 54 92 0 95 57 3 66 -74 7 -69 44 5 44 62
0 85 39 42 71 -30 22 -27 29 33 66 149 92 290 107 425 46z"/>
<path d="M560 1571 c0 -16 9 -34 20 -41 11 -7 20 -100 20 -211 0 -119 -8 -199
-20 -199 -11 0 -20 -13 -20 -30 0 -23 26 -30 110 -30 84 0 110 7 110 30 0 17
-9 30 -20 30 -11 0 -20 41 -20 91 0 88 2 91 55 85 57 -6 101 -176 46 -176 -11
0 -21 -13 -21 -30 0 -23 26 -30 110 -30 102 0 138 20 90 50 -11 7 -20 60 -20
119 0 107 -19 140 -86 154 -30 6 -23 21 44 95 96 106 91 122 -38 122 -99 0
-148 -31 -98 -61 28 -18 -28 -118 -75 -133 -25 -9 -10 110 15 125 57 36 12 69
-92 69 -82 0 -110 -7 -110 -29z"/>
<path d="M1460 1550 c0 -16 9 -30 20 -30 12 0 20 -77 20 -190 0 -113 -8 -190
-20 -190 -11 0 -20 -13 -20 -30 0 -23 24 -30 100 -30 76 0 100 7 100 30 0 17
-9 30 -20 30 -11 0 -20 36 -20 80 0 76 3 80 60 80 62 0 94 -137 40 -170 -47
-29 -13 -50 80 -50 76 0 100 7 100 30 0 17 -9 30 -19 30 -10 0 -22 47 -25 105
-5 85 -14 108 -52 127 l-46 23 71 75 c85 90 77 110 -42 110 -85 0 -91 -3 -80
-46 8 -31 -4 -64 -37 -105 l-49 -59 0 75 c-1 41 8 75 19 75 11 0 20 14 20 30
0 23 -24 30 -100 30 -76 0 -100 -7 -100 -30z"/>
<path d="M2015 1562 c-46 -15 -54 -51 -55 -237 0 -110 -8 -185 -20 -185 -11 0
-20 -13 -20 -30 0 -23 25 -30 101 -30 93 0 99 3 80 39 -43 80 -27 141 39 141
53 0 60 -7 60 -60 0 -33 -9 -60 -20 -60 -11 0 -20 -13 -20 -30 0 -23 24 -30
100 -30 93 0 127 21 80 50 -11 7 -20 91 -20 187 0 223 -15 246 -166 250 -63 2
-126 -1 -139 -5z m175 -152 c0 -51 -9 -61 -55 -66 -51 -6 -55 -1 -55 66 0 67
4 72 55 66 46 -5 55 -15 55 -66z"/>
<path d="M2436 1562 c-42 -13 -55 -47 -56 -143 0 -113 25 -139 134 -139 78 0
86 -4 86 -50 0 -45 -8 -50 -80 -50 -44 0 -80 9 -80 20 0 11 -13 20 -30 20 -21
0 -30 -21 -30 -70 l0 -70 145 0 c184 1 202 13 205 134 3 160 -1 166 -122 166
-102 0 -108 3 -108 50 0 45 8 50 80 50 44 0 80 -9 80 -20 0 -11 14 -20 31 -20
23 0 30 17 25 65 l-6 65 -124 0 c-69 0 -136 -4 -150 -8z"/>
<path d="M2760 1496 c0 -76 31 -103 53 -46 40 104 87 28 87 -140 0 -100 -8
-170 -20 -170 -11 0 -20 -13 -20 -30 0 -23 24 -30 100 -30 76 0 100 7 100 30
0 17 -9 30 -20 30 -12 0 -20 70 -20 170 0 157 3 170 40 170 22 0 40 -13 40
-30 0 -16 14 -30 31 -30 24 0 30 18 25 74 l-6 73 -195 3 -195 2 0 -76z"/>
<path d="M3340 1565 c-136 -9 -139 -15 -140 -240 0 -110 -8 -185 -20 -185 -11
0 -20 -13 -20 -30 0 -22 23 -30 90 -30 l89 0 -12 90 c-12 88 -11 90 43 90 54
0 55 -2 43 -90 l-12 -90 89 0 c67 0 90 8 90 30 0 17 -9 30 -20 30 -12 0 -20
80 -20 199 0 188 -29 270 -84 237 -3 -2 -55 -7 -116 -11z m86 -140 c13 -70 3
-85 -57 -85 -43 0 -49 9 -49 70 0 93 89 106 106 15z"/>
<path d="M3620 1548 c0 -14 9 -31 20 -38 11 -7 20 -93 20 -191 0 -106 -8 -179
-20 -179 -11 0 -20 -13 -20 -30 0 -23 24 -30 100 -30 98 0 119 13 81 51 -62
63 -32 139 52 133 110 -8 147 30 147 155 0 57 -11 105 -27 119 -41 34 -353 43
-353 10z m260 -128 c0 -53 -7 -60 -60 -60 -59 0 -87 66 -47 107 41 40 107 12
107 -47z"/>
<path d="M4040 1550 c0 -16 9 -30 20 -30 12 0 20 -77 20 -190 0 -113 -8 -190
-20 -190 -11 0 -20 -13 -20 -30 0 -24 33 -30 181 -30 l181 0 -6 83 c-6 85 -56
137 -56 59 0 -35 -12 -42 -70 -42 l-70 0 0 170 c0 100 8 170 20 170 11 0 20
14 20 30 0 23 -24 30 -100 30 -76 0 -100 -7 -100 -30z"/>
<path d="M4493 1556 c-27 -15 -33 -54 -33 -217 0 -119 -8 -199 -20 -199 -11 0
-20 -13 -20 -30 0 -22 24 -30 92 -30 l91 0 -14 65 c-7 36 -15 74 -16 85 -2 11
23 23 55 27 l58 6 -13 -91 -12 -92 89 0 c67 0 90 8 90 30 0 17 -9 30 -20 30
-12 0 -20 80 -20 199 0 109 -8 204 -19 210 -33 21 -255 26 -288 7z m187 -147
c0 -66 -4 -71 -55 -65 -52 6 -75 63 -49 121 24 55 104 11 104 -56z"/>
<path d="M4909 1554 c-20 -11 -29 -52 -29 -133 0 -130 11 -141 142 -141 70 0
78 -5 78 -50 0 -45 -8 -50 -80 -50 -44 0 -80 9 -80 20 0 11 -13 20 -30 20 -21
0 -30 -21 -30 -70 l0 -70 146 0 c180 0 194 13 194 174 l0 126 -110 0 c-104 0
-110 3 -110 50 0 53 121 77 150 30 26 -41 50 -18 50 49 l0 69 -131 -4 c-72 -2
-144 -11 -160 -20z"/>
<path d="M5260 1495 c0 -82 13 -93 50 -42 14 20 38 28 57 21 46 -18 48 -297 3
-334 -53 -44 -32 -60 80 -60 84 0 110 7 110 30 0 17 -9 30 -20 30 -12 0 -20
70 -20 170 0 166 36 236 73 140 25 -64 70 -33 63 45 l-6 75 -195 0 -195 0 0
-75z"/>
</g>
</svg>
