<?xml version="1.0" standalone="no"?>
<!DOCTYPE svg PUBLIC "-//W3C//DTD SVG 20010904//EN"
 "http://www.w3.org/TR/2001/REC-SVG-20010904/DTD/svg10.dtd">
<svg version="1.0" xmlns="http://www.w3.org/2000/svg"
 width="300.000000pt" height="533.000000pt" viewBox="0 0 300.000000 533.000000"
 preserveAspectRatio="xMidYMid meet">
<metadata>
Created by potrace 1.10, written by Peter Selinger 2001-2011
</metadata>
<g transform="translate(0.000000,533.000000) scale(0.100000,-0.100000)"
fill="#000000" stroke="none">
<path d="M1375 3499 c-351 -31 -692 -111 -903 -210 -166 -77 -258 -162 -288
-266 -67 -231 232 -379 926 -459 208 -24 1780 -34 1780 -11 0 12 -27 16 -142
21 -1077 51 -1730 153 -1967 306 -97 63 -118 139 -61 218 40 56 96 95 215 153
344 166 933 221 1171 110 109 -51 147 -137 94 -211 -51 -72 -225 -162 -455
-236 -63 -20 -115 -41 -115 -45 0 -5 12 -6 28 -4 183 31 278 50 382 75 404 99
564 220 477 362 -53 88 -187 146 -422 184 -119 19 -568 27 -720 13z"/>
<path d="M2787 2382 c-21 -23 -22 -66 -1 -86 36 -37 104 -7 104 46 0 51 -69
78 -103 40z m66 -36 c3 -8 -1 -20 -9 -27 -12 -10 -18 -9 -31 3 -8 9 -12 21 -9
27 10 16 43 14 49 -3z"/>
<path d="M174 2375 c-4 -8 -5 -67 -2 -131 4 -145 11 -154 124 -154 72 0 74 1
74 25 0 24 -2 25 -64 25 -49 0 -65 4 -70 16 -3 9 -6 65 -6 125 l0 109 -25 0
c-14 0 -28 -7 -31 -15z"/>
<path d="M505 2381 c-5 -9 -105 -282 -105 -288 0 -2 13 -3 29 -3 25 0 32 6 42
35 13 34 14 35 69 35 55 0 56 -1 69 -35 10 -30 17 -35 43 -35 20 0 29 4 26 13
-3 6 -27 74 -53 150 l-49 137 -32 0 c-18 0 -35 -4 -39 -9z m54 -102 c7 -23 15
-47 18 -55 4 -11 -5 -14 -37 -14 -32 0 -41 3 -37 14 3 8 11 32 18 55 7 23 15
41 19 41 4 0 12 -18 19 -41z"/>
<path d="M670 2365 c0 -23 4 -25 45 -25 l45 0 0 -125 0 -125 30 0 30 0 0 125
0 125 45 0 c41 0 45 2 45 25 l0 25 -120 0 -120 0 0 -25z"/>
<path d="M950 2240 l0 -150 30 0 30 0 0 150 0 150 -30 0 -30 0 0 -150z"/>
<path d="M1050 2365 c0 -23 4 -25 45 -25 l45 0 0 -125 0 -125 30 0 30 0 0 125
0 125 45 0 c41 0 45 2 45 25 l0 25 -120 0 -120 0 0 -25z"/>
<path d="M1330 2266 c0 -112 2 -128 20 -146 26 -26 59 -33 126 -28 90 8 98 22
102 173 l4 125 -31 0 -31 0 0 -109 c0 -86 -3 -113 -16 -125 -19 -19 -87 -21
-102 -3 -6 7 -13 62 -14 123 l-3 109 -27 3 -28 3 0 -125z"/>
<path d="M1620 2240 l0 -150 80 0 c95 0 131 15 151 62 19 45 17 145 -4 184
-21 40 -60 54 -153 54 l-74 0 0 -150z m163 87 c34 -24 34 -138 1 -172 -9 -9
-33 -15 -60 -15 l-44 0 0 100 0 100 43 0 c24 0 51 -6 60 -13z"/>
<path d="M1940 2377 c-24 -12 -25 -16 -28 -132 -3 -148 2 -155 108 -155 81 0
100 6 100 31 0 16 -10 19 -72 21 l-73 3 -3 38 -3 37 65 0 c59 0 66 2 66 20 0
18 -7 20 -66 20 l-65 0 3 38 3 37 73 3 c62 2 72 5 72 21 0 13 -10 20 -31 25
-51 10 -122 7 -149 -7z"/>
<path d="M2330 2372 c-41 -20 -59 -61 -59 -140 -1 -61 19 -116 47 -131 31 -16
124 -14 150 5 18 13 22 25 22 73 0 75 -12 86 -96 86 -54 0 -64 3 -64 18 0 34
36 57 90 57 42 0 50 3 50 19 0 35 -81 43 -140 13z m95 -192 c0 -33 -2 -35 -35
-38 -38 -4 -60 16 -60 55 0 22 3 24 48 21 47 -3 47 -3 47 -38z"/>
<path d="M2578 2288 c-31 -56 -54 -108 -51 -115 3 -8 30 -13 76 -15 l72 -3 3
-33 c3 -29 6 -33 30 -30 22 2 28 9 30 36 2 20 9 32 18 32 8 0 14 9 14 20 0 11
-6 20 -14 20 -10 0 -16 14 -18 43 -3 37 -6 42 -30 45 -25 3 -27 0 -30 -40 -3
-42 -4 -43 -40 -46 -21 -2 -38 1 -38 6 0 5 20 46 45 91 25 45 45 83 45 86 0 3
-13 5 -28 5 -26 0 -34 -10 -84 -102z"/>
</g>
</svg>
