<?xml version="1.0" standalone="no"?>
<!DOCTYPE svg PUBLIC "-//W3C//DTD SVG 20010904//EN"
 "http://www.w3.org/TR/2001/REC-SVG-20010904/DTD/svg10.dtd">
<svg version="1.0" xmlns="http://www.w3.org/2000/svg"
 width="300.000000pt" height="112.000000pt" viewBox="0 0 300.000000 112.000000"
 preserveAspectRatio="xMidYMid meet">
<metadata>
Created by potrace 1.10, written by Peter Selinger 2001-2011
</metadata>
<g transform="translate(0.000000,112.000000) scale(0.050000,-0.050000)"
fill="#000000" stroke="none">
<path d="M1290 2219 c-985 -23 -1290 -97 -1290 -310 0 -80 7 -93 75 -137 41
-26 110 -84 153 -129 101 -105 105 -101 122 136 10 146 23 206 47 228 176 154
5030 154 5206 0 24 -22 37 -82 47 -228 17 -237 21 -241 122 -136 43 45 112
103 153 129 150 97 101 252 -105 330 -321 122 -2248 172 -4530 117z"/>
<path d="M700 1962 c-56 -8 -81 -18 -65 -28 35 -23 36 -775 1 -810 -19 -19 35
-24 240 -24 163 0 264 -8 264 -20 0 -11 8 -20 17 -20 10 0 17 50 17 110 0 61
-7 110 -17 110 -9 0 -17 -9 -17 -20 0 -12 -74 -20 -181 -20 l-181 0 6 370 c3
204 6 369 6 367 0 -2 -40 -8 -90 -15z"/>
<path d="M3342 1929 c-180 -152 -100 -446 130 -480 144 -21 171 -40 164 -115
-13 -137 -252 -135 -324 2 l-28 53 -23 -86 c-13 -47 -29 -100 -36 -118 -8 -21
-4 -27 12 -17 13 8 51 -5 84 -29 202 -143 439 -26 439 217 0 185 -54 243 -267
282 -117 21 -142 43 -125 111 27 109 193 113 282 7 29 -34 54 -58 57 -54 11
15 56 182 49 185 -196 107 -322 119 -414 42z"/>
<path d="M2900 1840 c0 -12 -87 -20 -220 -20 -200 0 -258 -14 -200 -50 30 -19
26 -616 -4 -646 -19 -19 26 -24 199 -24 191 0 226 -5 243 -35 16 -26 21 -3 21
95 0 98 -5 121 -21 95 -16 -28 -48 -35 -169 -35 l-149 0 0 90 0 90 98 0 c60 0
103 -10 109 -25 5 -14 11 24 11 84 2 85 -3 104 -22 85 -13 -13 -63 -24 -110
-24 l-86 0 0 80 0 80 150 0 c87 0 150 -8 150 -20 0 -11 7 -20 16 -20 8 0 15
50 15 110 0 61 -7 110 -15 110 -9 0 -16 -9 -16 -20z"/>
<path d="M3823 1750 c0 -66 5 -109 10 -95 6 14 45 25 89 25 l78 0 0 -266 c0
-180 -8 -274 -24 -290 -27 -27 -26 -27 79 -28 55 -1 72 6 65 26 -5 16 -13 147
-16 293 l-6 265 81 0 c45 0 81 -9 81 -20 0 -11 7 -20 15 -20 18 0 15 196 -3
214 -6 7 -12 2 -12 -11 0 -34 -413 -32 -427 2 -5 14 -10 -29 -10 -95z"/>
<path d="M1220 1701 l0 -141 -89 0 c-116 0 -128 -26 -53 -111 34 -39 62 -78
62 -86 0 -42 104 -65 130 -29 26 35 90 9 90 -37 0 -48 102 -173 152 -186 63
-15 86 10 73 78 -7 37 9 59 81 108 191 131 143 382 -72 383 -118 1 -151 19
-158 87 -6 61 -9 63 -111 69 l-105 6 0 -141z m160 31 c0 -74 84 -113 259 -120
39 -2 53 -15 63 -62 28 -127 21 -146 -72 -210 -50 -34 -95 -84 -102 -111 -18
-71 -39 -61 -92 44 -57 115 -124 164 -178 131 -48 -30 -78 -30 -78 -1 0 13
-15 40 -33 60 -32 35 -30 37 37 37 73 0 122 148 84 248 -10 25 1 32 50 32 52
0 62 -8 62 -48z"/>
<path d="M1856 1498 c4 -177 2 -335 -4 -350 -19 -50 -13 -55 58 -53 100 2 100
3 74 29 -16 16 -24 97 -24 235 l0 210 130 -199 c71 -110 129 -216 130 -235 0
-27 17 -35 75 -35 l75 0 0 360 0 360 -77 0 c-65 0 -75 -6 -64 -35 17 -44 40
-425 26 -425 -29 0 -257 389 -249 423 9 32 -2 37 -73 37 l-83 0 6 -322z"/>
<path d="M4453 1762 c12 -64 -160 -619 -201 -647 -26 -17 -27 -17 83 -21 73
-3 83 1 73 31 -48 153 197 243 250 92 16 -46 16 -70 0 -90 -19 -22 -4 -27 82
-27 88 0 101 5 82 28 -40 48 -219 609 -208 651 10 37 1 41 -81 41 -91 0 -92
-1 -80 -58z m107 -243 c12 -45 27 -94 33 -110 9 -22 -7 -29 -63 -29 -55 0 -72
7 -64 28 6 15 22 65 36 110 30 101 31 101 58 1z"/>
<path d="M4890 1464 l0 -361 76 -7 c76 -7 113 10 74 34 -51 31 -23 270 31 270
60 0 183 -229 146 -273 -22 -28 162 -50 192 -24 12 11 10 17 -4 17 -13 0 -51
60 -86 132 l-63 133 55 44 c82 66 95 239 24 322 -48 55 -59 58 -248 65 l-197
8 0 -360z m360 136 l0 -70 -115 -6 -115 -6 0 82 0 82 115 -6 115 -6 0 -70z"/>
<path d="M2000 901 c0 -10 9 -24 20 -31 31 -19 26 -775 -5 -808 -54 -55 433
-20 493 36 159 150 150 661 -15 768 -50 32 -493 64 -493 35z m446 -205 c147
-197 38 -516 -175 -516 l-111 0 0 291 0 291 123 -6 c107 -5 128 -13 163 -60z"/>
<path d="M3104 756 c-233 -61 -180 -404 68 -438 140 -19 181 -63 117 -127 -50
-50 -182 -40 -240 18 -54 54 -60 51 -79 -51 l-13 -72 112 -35 c189 -59 319 -1
344 154 26 159 -69 275 -224 275 -73 0 -129 35 -129 80 0 92 156 107 241 23
l57 -58 30 88 c27 80 27 87 -5 87 -19 0 -52 12 -74 27 -55 38 -128 48 -205 29z"/>
<path d="M3687 758 c-135 -38 -222 -219 -199 -414 34 -286 240 -406 438 -255
37 28 73 45 81 38 22 -23 15 5 -26 95 -33 74 -41 81 -53 48 -73 -207 -328
-105 -328 131 0 212 232 320 310 144 27 -62 39 -57 75 33 28 72 28 79 -2 90
-18 6 -55 28 -83 49 -64 50 -134 63 -213 41z"/>
<path d="M2736 429 c5 -235 0 -340 -17 -360 -20 -24 -10 -29 64 -29 l87 0 0
360 0 360 -70 0 -70 0 6 -331z"/>
<path d="M3974 48 c9 -25 15 -26 28 -5 13 20 17 21 18 2 0 -14 18 -25 40 -25
72 0 45 53 -29 56 -55 2 -67 -4 -57 -28z"/>
</g>
</svg>
