<?xml version="1.0" encoding="UTF-8"?>
<svg id="Layer_1" data-name="Layer 1" xmlns="http://www.w3.org/2000/svg" viewBox="0 0 500 500">
  <path d="m132.09,281.1v3.28c0,1.81-.63,3.07-1.87,3.74-1.16.63-3.23.94-6.34.94h-19.24c-3.17,0-5.28-.31-6.46-.94-1.26-.68-1.89-1.94-1.89-3.74v-.99h7.45v1.36h20.8v-3.88h-18.7c-3.15,0-5.25-.31-6.41-.95-1.24-.68-1.87-1.94-1.87-3.73v-2.8c0-1.78.63-3.03,1.87-3.71,1.16-.64,3.25-.95,6.41-.95h17.6c3.1,0,5.18.29,6.38.9,1.29.66,1.94,1.81,1.94,3.44v.93h-7.28v-1.1h-19.39v3.54h18.81c3.15,0,5.24.3,6.37.93,1.22.67,1.84,1.93,1.84,3.73Zm-57.38,7.96h8.2v-20.33h-8.2v20.33Zm22.75-69.25l30.67,41.95h21.95l29.08-41.79,42.91,41.64.15.14h25.43l-63.39-62.58h-17.42l-29.32,41.85-29.8-41.85h-18.54l-62.8,62.58h29.16l41.95-41.95Zm79.96,49.86c-1.15-.63-3.25-.94-6.42-.94h-18.52c-3.13,0-5.21.31-6.35.94-1.23.68-1.86,1.93-1.86,3.72v10.99c0,1.81.63,3.07,1.87,3.74,1.16.63,3.23.94,6.34.94h18.52c3.15,0,5.24-.31,6.41-.95,1.24-.68,1.87-1.94,1.87-3.73v-2.58h-8.31v2.87h-18.47v-11.69h18.47v2.63h8.31v-2.22c0-1.79-.62-3.04-1.85-3.72Zm-113.7,9.15c0,3.47-1.98,6.52-5.18,7.97-3.3,1.5-8.33,2.27-14.95,2.27h-18.65v-20.33h20.47c5.78,0,10.3.78,13.42,2.32,3.02,1.49,4.89,4.46,4.89,7.77Zm-10.71-4.65c-1.61-.85-4.14-1.27-7.54-1.27h-12.23v11.85h8.81c5,0,8.52-.43,10.48-1.28,1.89-.82,2.74-3.03,2.74-4.85,0-1.56-.71-3.62-2.26-4.44Zm210.78-12.42h20.25l62.26-62.58h-27.97l-43.93,42.34-42.33-42.34h-31.02l62.6,62.43.15.15Zm154.11-62.42l-.15-.17h-58.33l-12.37,12.37h61.44l10.82,12.9h-84.52l-38.63,37.31h26.73l23.35-23.35h106.79l-35.14-39.07Zm-73.19,74.05v10.99c0,1.81-.62,3.06-1.85,3.74-1.15.63-3.23.94-6.36.94h-22.94c-3.15,0-5.24-.31-6.38-.94-1.22-.68-1.84-1.94-1.84-3.74v-10.99c0-1.79.62-3.04,1.84-3.72,1.14-.63,3.22-.94,6.38-.94h22.94c3.18,0,5.27.31,6.39.94,1.21.68,1.82,1.93,1.82,3.72Zm-31.12-.41v11.69h22.89v-11.69h-22.89Zm83.14-.08h14.31v16.16h8.24v-16.16h14.35v-4.17h-36.9v4.17Zm-148.93,4.47c-1.14-.62-3.22-.93-6.37-.93h-18.8v-3.54h19.39v1.1h7.28v-.93c0-1.62-.65-2.78-1.94-3.44-1.19-.6-3.28-.9-6.38-.9h-17.6c-3.15,0-5.25.31-6.41.95-1.24.68-1.87,1.93-1.87,3.71v2.8c0,1.79.63,3.05,1.87,3.73,1.16.64,3.26.95,6.41.95h18.7v3.88h-20.8v-1.36h-7.45v.99c0,1.81.64,3.07,1.89,3.74,1.17.63,3.28.94,6.46.94h19.24c3.1,0,5.18-.31,6.34-.94,1.24-.68,1.87-1.94,1.87-3.74v-3.28c0-1.81-.62-3.06-1.84-3.73Zm134.74,4.16l14.11,7.54h-12.54l-12.43-7.54h-6.17v7.54h-8.13v-20.33h27.21c2.54,0,4.35.28,5.53.86,1.26.62,1.93,1.68,1.93,3.07v4.98c0,1.38-.67,2.43-1.93,3.04-1.18.57-2.98.84-5.53.84h-2.05Zm-17.03-4.05h16c1.47,0,2.1-.15,2.37-.28.29-.14.41-.32.41-.64v-2.86c0-.32-.12-.51-.41-.64-.27-.13-.91-.28-2.37-.28h-16v4.7Zm-68.6-4.82v4.74c0,1.39-.67,2.45-1.93,3.07-1.18.58-2.99.86-5.53.86h-19.08v7.74h-8.14v-20.33h27.21c2.57,0,4.38.28,5.55.86,1.25.62,1.91,1.68,1.91,3.07Zm-26.53,4.61h16c1.46,0,2.1-.15,2.37-.28.29-.13.41-.32.41-.64v-2.66c0-.32-.12-.51-.41-.64-.28-.13-.91-.28-2.37-.28h-16v4.5Zm202.86.09c-1.14-.62-3.22-.93-6.37-.93h-18.8v-3.54h19.39v1.1h7.28v-.93c0-1.62-.65-2.78-1.94-3.44-1.19-.6-3.28-.9-6.38-.9h-17.6c-3.15,0-5.25.31-6.41.95-1.24.68-1.87,1.93-1.87,3.71v2.8c0,1.79.63,3.05,1.87,3.73,1.16.64,3.26.95,6.41.95h18.7v3.88h-20.8v-1.36h-7.45v.99c0,1.81.64,3.07,1.89,3.74,1.17.63,3.28.94,6.45.94h19.24c3.1,0,5.18-.31,6.34-.94,1.24-.68,1.87-1.94,1.87-3.74v-3.28c0-1.81-.62-3.06-1.84-3.73Zm-127.46-144.77c-.5-11.2-9.72-20.13-21.04-20.13s-20.29,8.69-21.02,19.68c-70.18,5-134.68,34.56-179.75,71.07l3.3,4.94c45.33-37.03,111.63-67.48,176.65-71.38,1.55,10.11,10.27,17.87,20.82,17.87s18.53-7.1,20.59-16.58c23.06,3.79,50.43,15.83,54.53,53.99h15.75c-4.47-26-19.72-53.49-69.83-59.46Zm-19.66,12.25c-7.6,0-13.79-6.19-13.79-13.79s6.19-13.79,13.79-13.79,13.79,6.18,13.79,13.79c0,.37-.03.73-.06,1.1-.75.33-1.45.88-2.4,1.84-1.82,1.81-2.9,3.27.77,3.67-2.34,4.28-6.89,7.19-12.1,7.19Zm-166.23,207.47c-2.58-13.78-14.67-24.21-29.19-24.21-11.57,0-21.58,6.62-26.49,16.27-22.12-9.8-34.2-27.48-34.2-48.38,0-.24.02-.48.02-.72h-9.85c-.41,2.96-.64,5.88-.64,8.73,0,21.3,12.49,41.26,41.47,52.69-.01.37-.03.74-.03,1.11,0,16.4,13.3,29.71,29.71,29.71,13.35,0,24.64-8.81,28.39-20.92,1.56.03,3.14.05,4.75.05,69.67,0,146.93-35.09,197.61-71.51h-40.01c-44.49,29.73-102.79,54.23-161.54,57.17Zm-27.25,22.03c-8.75,0-16.18-5.64-18.91-13.47h0c-.16-.47-.31-.95-.44-1.43-.03-.11-.06-.21-.08-.32-.11-.41-.2-.84-.28-1.26-.05-.25-.08-.51-.12-.76-.05-.32-.1-.63-.13-.95-.05-.61-.09-1.22-.09-1.85s.04-1.23.09-1.84c.03-.29.07-.57.11-.85.04-.29.08-.58.13-.86.07-.37.15-.75.24-1.11.04-.15.08-.31.12-.46.12-.43.24-.86.38-1.28h0c2.68-7.92,10.17-13.64,18.98-13.64,11.05,0,20.04,8.99,20.04,20.04,0,.17-.02.33-.03.5-.86.63-1.77,1.44-2.81,2.47-3.87,3.87-6.39,7.06-.76,8.41-.12.17-.23.35-.36.52h0c-3.65,4.92-9.49,8.13-16.08,8.13Z"/>
</svg>