<?xml version="1.0" standalone="no"?>
<!DOCTYPE svg PUBLIC "-//W3C//DTD SVG 20010904//EN"
 "http://www.w3.org/TR/2001/REC-SVG-20010904/DTD/svg10.dtd">
<svg version="1.0" xmlns="http://www.w3.org/2000/svg"
 width="300.000000pt" height="300.000000pt" viewBox="0 0 300.000000 300.000000"
 preserveAspectRatio="xMidYMid meet">
<metadata>
Created by potrace 1.10, written by Peter Selinger 2001-2011
</metadata>
<g transform="translate(0.000000,300.000000) scale(0.050000,-0.050000)"
fill="#000000" stroke="none">
<path d="M2970 4546 c-244 -131 -798 -708 -1146 -1194 l-66 -92 56 0 c48 1 79
31 209 205 732 979 969 1069 1472 560 113 -114 205 -202 205 -196 0 28 -152
310 -220 411 -193 283 -363 385 -510 306z"/>
<path d="M5215 3962 c-164 -34 -122 -70 92 -79 172 -7 310 24 252 57 -46 26
-259 39 -344 22z"/>
<path d="M1440 3938 c-189 -21 -391 -74 -421 -110 -61 -73 119 -297 376 -469
178 -119 200 -115 85 15 -306 348 -231 455 380 534 110 14 207 32 214 39 18
18 -451 11 -634 -9z"/>
<path d="M4390 3868 c-247 -38 -705 -154 -975 -247 -266 -92 -791 -309 -821
-339 -36 -36 288 -29 339 8 235 164 1091 456 1614 550 121 22 224 44 230 50
18 19 -206 6 -387 -22z"/>
<path d="M3850 3470 c30 -150 53 -210 81 -210 42 0 35 36 -33 160 -45 84 -57
96 -48 50z"/>
<path d="M812 3171 c-17 -27 -32 -53 -32 -58 0 -4 104 -6 231 -3 253 5 262 1
229 -100 l-23 -70 -129 0 -128 0 13 82 c13 82 13 82 -35 58 -110 -57 -218
-251 -218 -393 0 -83 168 -21 186 68 l16 85 185 0 c216 0 269 34 309 200 38
156 -4 180 -317 180 -248 0 -255 -1 -287 -49z"/>
<path d="M1467 2975 c-34 -135 -66 -258 -70 -275 -5 -22 14 -32 76 -36 l83 -6
24 101 24 101 105 0 104 0 19 -95 c17 -92 20 -95 95 -101 l78 -7 -14 114 c-13
103 -10 118 35 166 172 183 86 283 -241 283 l-255 0 -63 -245z m456 85 c-11
-83 -40 -100 -165 -100 -127 0 -136 10 -98 110 30 79 274 70 263 -10z"/>
<path d="M2233 3164 c-36 -38 -69 -113 -100 -227 l-47 -170 43 -53 c41 -53 48
-54 263 -54 275 0 298 18 367 286 l45 177 -45 48 c-75 80 -447 74 -526 -7z
m376 -83 c15 -24 -51 -267 -78 -286 -57 -39 -251 -16 -251 30 0 45 48 220 70
256 16 25 244 25 259 0z"/>
<path d="M2900 3169 c-11 -29 -20 -56 -20 -60 0 -5 94 -9 209 -9 243 0 238 4
194 -151 -47 -168 -48 -169 -193 -169 l-127 0 40 142 c46 163 43 173 -41 129
-80 -41 -195 -262 -202 -386 0 -3 119 -5 265 -4 339 0 357 12 426 285 l47 183
-42 46 c-70 74 -528 69 -556 -6z"/>
<path d="M3579 3172 l45 -49 -62 -222 c-34 -122 -62 -226 -62 -232 0 -5 38 -9
85 -9 l85 0 64 245 c34 135 69 261 77 280 12 31 -2 35 -132 35 l-146 0 46 -48z"/>
<path d="M3957 3172 c-39 -34 -67 -96 -103 -227 l-49 -181 43 -50 c110 -130
568 -50 599 105 6 31 17 80 24 109 l13 52 -145 0 -146 0 45 -48 c98 -104 -66
-207 -229 -144 -27 10 17 236 56 287 31 39 275 34 275 -6 0 -47 167 -32 176
15 26 137 -424 207 -559 88z"/>
<path d="M4560 3209 c0 -6 28 -90 62 -186 58 -165 64 -235 28 -328 -12 -30 -2
-35 77 -35 88 0 92 2 104 69 15 77 60 142 246 349 l127 142 -90 0 c-87 0 -95
-5 -187 -119 -119 -146 -117 -146 -151 -6 l-28 115 -94 6 c-52 3 -94 0 -94 -7z"/>
<path d="M1294 2535 c-135 -233 -526 -1070 -507 -1088 3 -4 86 84 183 195 214
245 580 618 810 825 l170 153 -157 0 c-145 0 -163 -5 -233 -60 -42 -33 -86
-60 -99 -60 -16 0 -20 20 -11 60 23 104 -91 86 -156 -25z"/>
<path d="M2390 2582 c242 -280 1574 -1129 1814 -1156 219 -25 224 343 15 1118
-20 73 -24 76 -105 76 l-84 0 7 -247 c12 -429 -48 -588 -214 -565 -169 23
-578 239 -1103 581 -137 90 -277 180 -310 201 l-60 38 40 -46z"/>
</g>
</svg>
