<?xml version="1.0" standalone="no"?>
<!DOCTYPE svg PUBLIC "-//W3C//DTD SVG 20010904//EN"
 "http://www.w3.org/TR/2001/REC-SVG-20010904/DTD/svg10.dtd">
<svg version="1.0" xmlns="http://www.w3.org/2000/svg"
 width="300.000000pt" height="300.000000pt" viewBox="0 0 300.000000 300.000000"
 preserveAspectRatio="xMidYMid meet">
<metadata>
Created by potrace 1.10, written by Peter Selinger 2001-2011
</metadata>
<g transform="translate(0.000000,300.000000) scale(0.100000,-0.100000)"
fill="#000000" stroke="none">
<path d="M1480 2920 c0 -16 6 -20 31 -20 l30 0 -7 -150 -7 -150 32 0 c31 0 31
0 31 53 0 30 3 95 6 145 l7 91 31 3 c23 2 31 8 31 23 0 18 -8 20 -92 23 -88 3
-93 2 -93 -18z"/>
<path d="M1215 2910 c-3 -5 1 -37 10 -71 17 -65 14 -75 -24 -81 -26 -3 -28 1
-51 90 -7 29 -16 42 -28 42 -40 -1 -40 -12 -6 -155 19 -77 37 -150 39 -162 5
-23 29 -30 52 -15 8 5 7 24 -4 75 -8 37 -14 70 -12 72 2 2 17 5 33 7 29 3 30
1 46 -61 17 -68 24 -76 57 -64 21 8 20 10 -19 171 -37 152 -41 162 -63 162
-13 0 -27 -4 -30 -10z"/>
<path d="M2061 2773 c-33 -41 -35 -68 -11 -132 26 -71 24 -115 -6 -119 -30 -4
-48 21 -35 47 9 17 8 22 -11 32 -18 10 -24 8 -35 -7 -18 -25 -16 -69 4 -90 25
-24 81 -46 103 -39 30 10 60 55 60 90 0 18 -10 58 -21 89 -18 46 -20 61 -11
81 6 14 18 25 26 25 21 0 38 -27 31 -50 -3 -11 -2 -20 4 -20 5 0 16 -3 25 -6
11 -4 19 2 26 20 29 78 -98 145 -149 79z"/>
<path d="M805 2760 c-11 -4 -31 -19 -44 -33 -32 -35 -24 -68 47 -187 67 -110
88 -124 148 -94 22 10 45 32 53 47 12 27 10 34 -20 93 -18 36 -36 67 -40 70
-7 4 -29 -7 -67 -32 -2 -1 -1 -12 3 -24 4 -14 12 -19 24 -15 14 4 22 -5 36
-36 18 -40 18 -42 1 -54 -10 -8 -23 -11 -29 -9 -14 6 -117 181 -117 199 0 7 7
19 16 26 14 11 20 10 40 -14 20 -23 27 -26 44 -17 27 14 25 28 -7 62 -27 28
-52 34 -88 18z"/>
<path d="M2299 2489 l-112 -120 22 -22 22 -22 42 47 42 46 35 -24 c19 -13 43
-24 53 -24 43 0 117 81 117 129 0 20 -82 111 -100 111 -4 0 -58 -54 -121 -121z
m149 39 c19 -19 14 -39 -15 -70 -28 -30 -52 -35 -70 -17 -9 9 -2 23 25 55 40
48 42 50 60 32z"/>
<path d="M516 2541 c-16 -18 -13 -23 83 -112 56 -52 101 -101 101 -110 0 -9
-7 -22 -15 -29 -12 -10 -23 -5 -62 28 -27 22 -73 66 -103 96 -30 31 -60 56
-67 56 -7 0 -17 -10 -24 -21 -10 -19 -7 -26 22 -53 19 -17 66 -61 106 -98 60
-57 78 -68 106 -68 27 0 42 8 66 35 33 38 37 58 18 91 -11 21 -200 204 -209
204 -3 0 -13 -8 -22 -19z"/>
<path d="M1491 2490 c-9 -32 -41 -69 -140 -168 -132 -130 -151 -159 -151 -233
0 -39 -8 -40 -62 -12 -61 32 -97 29 -265 -21 -149 -43 -180 -48 -222 -36 l-34
10 25 -28 c30 -33 51 -87 78 -207 12 -49 25 -107 31 -128 11 -43 59 -101 99
-122 43 -22 36 -66 -17 -104 -23 -17 -49 -41 -57 -53 -16 -25 -36 -103 -61
-238 -18 -95 -30 -133 -57 -172 l-19 -27 31 10 c35 13 110 2 260 -37 119 -30
155 -30 214 1 26 14 52 23 57 20 5 -4 9 -25 9 -48 1 -23 6 -52 13 -65 7 -12
72 -82 144 -155 97 -99 132 -141 138 -166 l7 -35 13 37 c15 42 54 89 176 204
87 84 102 107 114 175 7 42 19 46 55 21 36 -25 98 -20 255 22 108 28 153 36
198 33 l57 -4 -25 26 c-27 28 -57 120 -76 230 -22 128 -62 197 -135 238 -15 9
-16 13 -5 26 11 13 11 19 0 32 -12 15 -11 18 5 28 39 22 88 70 97 94 5 14 23
92 39 175 18 90 39 166 53 191 l23 41 -86 1 c-58 1 -115 9 -180 28 -114 31
-177 33 -229 6 -21 -10 -41 -16 -45 -13 -3 4 -6 22 -6 41 0 57 -28 99 -136
200 -118 111 -142 141 -159 188 l-12 35 -12 -41z m56 -203 c17 -23 56 -62 87
-87 61 -49 86 -95 86 -160 0 -38 -1 -40 -32 -40 -28 0 -44 11 -110 82 -75 80
-78 82 -93 63 -9 -11 -39 -48 -68 -82 -47 -56 -56 -62 -90 -62 l-39 -1 7 53
c10 71 24 94 93 155 33 28 70 68 82 87 12 19 27 35 34 35 7 0 26 -19 43 -43z
m-568 -663 l-32 -33 -34 26 c-42 32 -59 64 -68 128 -4 28 -18 79 -31 114 -13
34 -22 67 -19 71 2 4 31 11 62 14 32 4 78 16 103 25 l45 19 3 -166 2 -166 -31
-32z m1115 335 c27 -5 64 -9 82 -9 38 0 41 -8 19 -50 -8 -16 -20 -64 -26 -107
-14 -100 -23 -123 -65 -164 l-34 -33 -30 29 -30 29 0 164 c0 152 1 164 18 157
9 -3 39 -11 66 -16z m-113 -111 c0 -68 2 -186 5 -263 3 -77 3 -236 -1 -352
l-7 -213 -468 0 -468 0 -6 31 c-3 17 -6 231 -6 475 l0 444 475 0 475 0 1 -122z
m-1004 -470 l33 -32 0 -164 0 -164 -22 7 c-62 18 -97 25 -142 25 -55 0 -52
-12 -22 110 8 36 18 87 21 114 5 38 15 57 47 92 22 24 43 44 46 44 3 0 21 -14
39 -32z m1126 -13 c42 -38 57 -70 57 -120 0 -19 11 -65 25 -103 14 -38 25 -74
25 -79 0 -6 -28 -13 -62 -16 -35 -3 -80 -13 -100 -22 l-38 -15 0 174 c0 167 1
176 22 196 12 11 24 20 27 20 3 0 23 -16 44 -35z m-671 -431 l67 -67 73 66
c66 60 77 67 116 67 l43 0 -6 -37 c-13 -78 -27 -102 -83 -152 -31 -27 -70 -67
-87 -90 -16 -22 -33 -41 -37 -41 -3 0 -51 44 -106 98 -71 71 -101 108 -106
130 -20 102 -22 92 20 92 34 0 46 -8 106 -66z"/>
<path d="M1100 1500 l0 -410 410 0 410 0 0 410 0 410 -410 0 -410 0 0 -410z
m675 310 c27 -31 50 -60 51 -65 2 -6 -8 -18 -22 -29 l-26 -18 -42 41 c-41 40
-44 41 -109 41 l-67 0 0 -40 0 -40 -45 0 -45 0 0 40 0 40 -65 0 c-56 0 -69 -4
-97 -28 -70 -58 -66 -57 -93 -32 -14 13 -25 27 -25 31 0 4 25 31 55 60 l56 54
212 0 212 0 50 -55z m25 -175 l0 -45 -249 -2 -248 -3 14 -47 14 -48 64 0 65 0
0 -45 0 -46 -107 3 -107 3 -18 119 c-26 169 -51 156 294 156 l278 0 0 -45z
m-242 -207 l-3 -143 -40 0 -40 0 -3 143 -3 142 46 0 46 0 -3 -142z m228 20
c-4 -24 -16 -94 -28 -156 l-21 -112 -220 2 -221 3 -18 74 c-11 41 -17 80 -14
87 3 8 19 14 35 14 26 0 31 -5 43 -42 l15 -43 150 -3 150 -3 17 59 c9 32 16
61 16 65 0 4 -27 7 -60 7 l-60 0 0 38 c0 21 3 42 7 45 3 4 53 7 111 7 l105 0
-7 -42z m-226 -308 c0 -17 -7 -20 -45 -20 -38 0 -45 3 -45 20 0 17 7 20 45 20
38 0 45 -3 45 -20z"/>
<path d="M1320 2430 c-158 -33 -271 -86 -395 -185 -73 -58 -182 -178 -167
-183 5 -1 42 8 83 21 54 17 95 39 149 81 80 62 173 113 256 140 65 21 212 150
167 145 -5 0 -46 -9 -93 -19z"/>
<path d="M1643 2386 c51 -48 81 -67 125 -80 78 -24 193 -87 269 -147 62 -50
87 -61 176 -78 56 -10 54 -2 -21 74 -111 114 -221 188 -350 235 -69 25 -223
61 -256 60 -6 -1 19 -29 57 -64z"/>
<path d="M2552 2230 c-85 -32 -156 -61 -159 -63 -2 -3 1 -15 7 -27 8 -15 17
-19 28 -15 42 18 48 16 64 -18 16 -34 16 -35 -9 -53 -25 -19 -25 -19 -6 -43
l19 -23 90 77 c185 161 178 150 136 201 l-17 22 -153 -58z m73 -56 c-71 -64
-82 -69 -96 -43 -6 12 -7 25 -2 30 7 7 131 58 143 58 3 0 -17 -20 -45 -45z"/>
<path d="M256 2195 c-29 -32 -38 -72 -23 -105 15 -31 198 -129 242 -129 35 -1
45 5 68 39 23 33 22 85 -3 110 -31 31 -196 110 -230 110 -20 0 -39 -9 -54 -25z
m175 -88 c79 -42 94 -62 65 -87 -12 -9 -35 -1 -115 40 -100 51 -117 70 -90 97
14 14 35 7 140 -50z"/>
<path d="M2690 1920 c-114 -32 -140 -50 -140 -102 0 -36 28 -86 53 -94 32 -10
97 6 97 24 0 29 -14 38 -55 37 -36 0 -40 2 -40 25 0 23 7 27 108 53 85 22 112
25 123 16 23 -19 16 -40 -16 -52 -26 -10 -30 -16 -25 -37 4 -14 8 -26 10 -28
8 -9 75 29 85 48 27 50 -21 141 -72 139 -13 0 -70 -14 -128 -29z"/>
<path d="M2330 1885 c-17 -74 -18 -144 -2 -214 17 -77 15 -259 -4 -343 -14
-61 -15 -82 -4 -137 20 -111 24 -114 53 -49 53 119 72 220 71 378 -1 160 -17
242 -72 361 l-29 64 -13 -60z"/>
<path d="M631 1844 c-43 -112 -55 -184 -55 -324 -1 -150 11 -222 57 -344 34
-90 39 -88 57 30 11 66 11 93 1 145 -16 81 -17 238 -1 313 10 48 9 69 -5 134
-25 111 -29 114 -54 46z"/>
<path d="M120 1842 c0 -33 5 -36 75 -47 56 -8 64 -15 58 -49 -6 -28 -7 -28
-57 -22 -28 3 -61 9 -72 12 -17 5 -22 0 -27 -23 -3 -15 -4 -29 -3 -31 4 -4
329 -62 332 -59 1 1 5 14 9 28 7 26 5 27 -64 40 l-71 12 0 35 0 35 43 -7 c23
-4 56 -9 74 -12 28 -5 33 -3 39 20 3 15 5 29 3 30 -2 2 -69 16 -149 31 -80 14
-155 29 -167 32 -20 4 -23 1 -23 -25z"/>
<path d="M2598 1574 c-5 -4 -8 -43 -8 -86 0 -77 0 -78 25 -78 23 0 25 3 25 50
0 57 10 66 65 56 33 -7 35 -9 35 -46 0 -36 3 -40 25 -40 23 0 25 4 25 40 l0
40 50 0 50 0 0 -50 c0 -43 3 -50 20 -50 22 0 22 -1 25 93 l2 67 -92 0 c-51 0
-125 3 -166 6 -41 3 -77 3 -81 -2z"/>
<path d="M86 1461 c-3 -5 -1 -48 6 -95 10 -80 13 -87 32 -84 17 2 21 9 18 36
-1 17 3 32 8 32 14 0 193 19 246 25 38 5 40 7 36 35 -4 27 -7 29 -36 25 -99
-13 -248 -25 -256 -20 -6 3 -10 17 -10 31 0 17 -5 24 -19 24 -11 0 -22 -4 -25
-9z"/>
<path d="M2683 1218 c-41 -20 -52 -86 -21 -125 15 -19 72 -16 91 5 9 10 20 32
23 49 5 26 1 37 -19 57 -28 28 -40 30 -74 14z"/>
<path d="M296 1115 c-35 -35 -27 -91 18 -120 42 -28 96 3 96 54 0 63 -74 106
-114 66z"/>
<path d="M2140 904 c-48 -15 -100 -38 -121 -55 -43 -34 -188 -112 -239 -128
-19 -6 -66 -40 -105 -76 -63 -58 -68 -64 -44 -65 82 -1 288 75 395 146 94 62
240 206 207 203 -4 0 -46 -12 -93 -25z"/>
<path d="M840 854 c122 -123 292 -219 462 -259 117 -27 121 -24 49 49 -43 43
-76 67 -104 76 -62 18 -175 77 -235 122 -35 26 -77 46 -125 58 -117 31 -120
29 -47 -46z"/>
<path d="M2447 909 c-21 -12 -47 -61 -47 -89 0 -12 13 -35 29 -51 33 -33 61
-36 152 -17 46 9 61 9 73 -1 36 -30 5 -78 -34 -53 -14 9 -22 7 -36 -9 -18 -20
-18 -21 1 -35 51 -37 109 -17 135 47 26 62 -39 129 -112 115 -93 -18 -124 -18
-141 -1 -13 12 -15 21 -7 36 12 21 30 25 47 8 8 -8 15 -4 27 13 15 21 15 24
-1 35 -20 15 -61 16 -86 2z"/>
<path d="M452 778 c-149 -80 -152 -82 -134 -101 16 -15 23 -16 45 -6 23 11 29
9 46 -12 25 -30 25 -37 4 -61 -18 -20 -10 -47 14 -55 10 -4 206 207 226 242 5
9 -3 25 -20 45 l-28 30 -153 -82z m90 -35 c-22 -27 -48 -55 -58 -65 -18 -15
-20 -15 -36 6 -16 23 -16 23 55 64 40 23 74 42 75 42 2 0 -14 -21 -36 -47z"/>
<path d="M2258 694 c-35 -18 -61 -68 -52 -97 8 -27 140 -184 165 -197 33 -18
70 -11 100 19 37 37 39 84 5 126 -24 29 -24 30 -45 11 -20 -19 -20 -19 -1 -46
11 -16 20 -33 20 -39 0 -14 -34 -31 -47 -23 -27 18 -144 167 -141 181 5 22 36
26 58 6 15 -13 23 -14 39 -5 28 15 27 24 -10 54 -35 30 -52 31 -91 10z"/>
<path d="M739 674 c-11 -14 -10 -19 9 -34 12 -10 22 -21 22 -24 0 -3 -39 -56
-86 -117 -82 -106 -85 -112 -68 -130 9 -10 20 -19 24 -19 3 0 46 52 94 116
l88 115 25 -16 c19 -13 27 -14 39 -4 8 6 14 14 14 18 0 6 -135 111 -144 111
-2 0 -10 -7 -17 -16z"/>
<path d="M2053 547 c-13 -5 -23 -14 -23 -19 0 -9 147 -278 159 -291 4 -4 17 0
29 10 l22 18 -79 143 c-43 78 -80 144 -82 146 -2 2 -14 -1 -26 -7z"/>
<path d="M909 378 c-65 -151 -66 -153 -45 -165 12 -7 24 -12 27 -13 3 0 18 29
34 65 28 67 35 72 72 52 l21 -12 -28 -68 -29 -68 26 -10 c14 -5 29 -6 33 -2
11 14 133 303 129 307 -2 3 -16 7 -31 11 -21 5 -27 3 -33 -15 -4 -12 -16 -41
-26 -65 -19 -42 -20 -43 -49 -33 -17 5 -30 14 -30 19 0 5 12 37 26 70 14 34
24 63 22 64 -2 2 -14 6 -28 10 -24 6 -28 0 -91 -147z"/>
<path d="M1827 453 c-71 -22 -76 -26 -66 -44 8 -16 17 -19 39 -14 l29 6 43
-138 c38 -119 47 -138 64 -135 10 2 23 7 27 12 5 4 -10 66 -32 137 -23 72 -41
133 -41 137 0 4 13 12 29 17 22 8 28 15 24 30 -7 24 -19 23 -116 -8z"/>
<path d="M1232 287 c-13 -78 -26 -154 -29 -168 -5 -25 -2 -27 44 -33 26 -4 63
-10 81 -13 29 -5 32 -3 32 20 0 22 -5 26 -45 31 -25 4 -45 13 -45 19 0 7 9 66
20 132 26 156 26 155 -7 155 l-28 0 -23 -143z"/>
<path d="M1528 403 c-13 -3 -18 -14 -18 -41 1 -60 19 -294 24 -299 2 -2 38 -1
80 3 72 6 76 8 76 32 0 23 -2 24 -50 20 -49 -5 -50 -5 -56 27 -10 56 -3 70 39
73 32 3 37 6 37 29 0 24 -2 25 -39 20 -44 -6 -51 2 -51 59 0 31 3 34 30 35 17
1 35 3 40 4 6 1 15 3 20 4 6 0 10 10 10 21 0 18 -6 20 -62 19 -35 -1 -71 -3
-80 -6z"/>
</g>
</svg>
