<?xml version="1.0" standalone="no"?>
<!DOCTYPE svg PUBLIC "-//W3C//DTD SVG 20010904//EN"
 "http://www.w3.org/TR/2001/REC-SVG-20010904/DTD/svg10.dtd">
<svg version="1.0" xmlns="http://www.w3.org/2000/svg"
 width="300.000000pt" height="98.000000pt" viewBox="0 0 300.000000 98.000000"
 preserveAspectRatio="xMidYMid meet">
<metadata>
Created by potrace 1.10, written by Peter Selinger 2001-2011
</metadata>
<g transform="translate(0.000000,98.000000) scale(0.050000,-0.050000)"
fill="#000000" stroke="none">
<path d="M404 1843 c-67 -146 -84 -405 -37 -564 30 -105 30 -107 -13 -136
-162 -110 -296 -336 -335 -566 -29 -178 -25 -181 115 -70 l116 92 12 -164 c11
-165 38 -275 92 -381 l28 -56 64 39 c118 73 395 205 508 244 111 38 218 53
174 24 -27 -18 -128 -164 -128 -186 0 -51 340 -59 2627 -59 l2374 0 -11 45
c-20 87 -330 1678 -330 1697 0 11 -678 18 -1755 18 -1593 -1 -1756 1 -1762 30
-5 27 -25 30 -120 19 -197 -23 -342 -106 -463 -266 l-50 -66 -170 14 c-170 14
-171 14 -230 94 -123 164 -330 274 -567 302 l-87 10 -52 -114z m348 -56 c59
-27 148 -96 210 -161 l107 -114 -67 -17 c-62 -16 -74 -11 -150 63 -71 69 -249
172 -267 154 -3 -4 -14 -46 -23 -94 l-16 -88 -23 56 c-13 31 -23 106 -23 166
l0 110 75 -14 c41 -7 121 -34 177 -61z m1324 -219 c-6 -80 -4 -145 2 -145 38
5 39 -11 2 -83 l-41 -81 -50 36 c-33 24 -46 48 -39 75 64 255 27 312 -113 173
-91 -91 -105 -99 -149 -79 -110 50 85 249 286 293 100 21 113 -4 102 -189z
m-1525 -148 c69 -83 9 -267 -63 -194 -22 21 -67 241 -67 324 l-1 80 53 -90
c29 -49 64 -103 78 -120z m4006 168 c73 -15 163 -98 163 -151 0 -50 -169 -55
-188 -6 -16 42 -142 32 -142 -11 0 -20 43 -40 136 -63 173 -42 214 -78 214
-187 0 -249 -480 -280 -550 -35 -18 63 142 67 195 5 42 -48 151 -54 168 -9 17
43 7 48 -139 82 -382 87 -243 452 143 375z m-1641 -73 c-6 -61 -10 -65 -86
-65 l-80 0 7 -235 6 -235 -101 0 -102 0 0 238 0 238 -80 -11 -80 -10 0 72 0
73 261 0 262 0 -7 -65z m482 43 c128 -45 157 -232 49 -317 l-52 -40 65 -101
c35 -55 67 -100 71 -100 3 0 49 131 102 290 l96 290 130 0 131 0 88 -275 c48
-151 91 -286 96 -300 7 -18 -19 -25 -91 -25 -95 0 -100 3 -113 61 -19 85 -210
84 -230 -1 -11 -49 -17 -50 -215 -56 l-204 -5 -56 100 c-72 131 -105 131 -105
1 l0 -100 -95 0 -96 0 1 300 0 300 182 0 c100 0 211 -10 246 -22z m1602 -89
l0 -111 95 6 95 6 -7 105 -7 105 102 0 102 0 0 -300 0 -300 -103 0 -103 0 12
130 12 130 -99 0 -99 0 0 -130 0 -130 -95 0 -95 0 0 300 0 300 95 0 95 0 0
-111z m-3619 -80 c78 -40 173 -161 208 -266 47 -136 41 -160 -24 -98 -197 189
-466 143 -780 -132 l-72 -63 98 -10 99 -10 -113 -56 c-175 -85 -301 -244 -356
-450 -29 -109 -55 -93 -72 46 -19 154 3 273 71 373 32 47 55 89 51 93 -20 20
-181 -46 -260 -106 -107 -82 -114 -60 -28 90 142 247 407 426 740 497 156 34
177 63 45 63 -76 0 -56 37 27 51 41 7 84 16 95 20 37 14 216 -13 271 -42z
m305 -2 c184 -93 388 -247 547 -412 164 -173 166 -190 22 -194 -68 -1 -68 1 6
-115 61 -98 139 -316 139 -392 0 -37 -9 -33 -77 33 -42 41 -102 82 -134 90
-56 15 -58 19 -58 146 -1 107 -10 144 -56 212 -58 88 -48 114 34 93 67 -16 64
-2 -19 112 -121 165 -232 205 -306 110 -52 -65 -64 -63 -64 11 0 75 -45 186
-111 272 -80 104 -71 109 77 34z m-332 -409 l56 -21 -56 -49 c-71 -60 -95 -60
-154 2 l-46 49 48 19 c64 26 85 26 152 0z m646 -18 c0 -41 -57 -62 -98 -36
-51 31 -53 51 -7 61 44 9 105 -5 105 -25z m-136 -160 l106 -101 -70 12 c-172
29 -221 -84 -84 -192 100 -79 -79 -118 -378 -83 -264 31 -376 10 -693 -129
-14 -6 -25 -2 -25 10 0 38 216 176 332 213 l113 35 -74 26 c-109 37 -106 41
72 66 187 26 344 91 438 181 90 86 138 79 263 -38z m1186 81 c263 -61 175
-401 -103 -401 -66 0 -67 -1 -67 -90 l0 -90 -95 0 -95 0 5 295 c2 162 4 297 5
300 1 13 280 2 350 -14z m627 -251 c47 -149 90 -284 96 -300 9 -24 -8 -30 -88
-30 -95 0 -101 3 -112 60 -18 91 -203 93 -223 2 -11 -53 -21 -59 -111 -65
-114 -8 -112 -14 -56 137 23 64 51 138 60 164 l18 48 50 -47 c58 -54 59 -49
17 52 -28 69 -26 184 5 234 5 8 66 15 135 15 l125 0 84 -270z m412 105 c101
-193 107 -192 95 6 l-9 162 87 -7 87 -6 1 -296 2 -296 -109 6 -108 6 -89 160
-89 160 8 -165 8 -165 -86 0 -87 0 0 301 0 301 104 -6 105 -6 80 -155z m788
117 c196 -102 192 -440 -7 -523 -42 -18 -137 -29 -245 -29 l-177 0 4 295 c2
162 4 298 6 303 7 22 361 -16 419 -46z m684 -252 c108 -335 109 -313 -10 -303
-84 7 -94 13 -105 66 -16 83 -207 81 -226 -3 -10 -44 -23 -51 -116 -56 l-103
-6 36 86 c20 47 57 154 82 236 87 290 81 283 224 276 l123 -6 95 -290z m-3561
-109 c-25 -75 -54 -91 -73 -40 -11 29 69 139 88 120 5 -4 -2 -40 -15 -80z
m-105 -165 c17 -51 -188 -140 -401 -175 l-76 -13 35 54 36 55 -49 -15 c-212
-63 -243 -61 -192 18 48 73 104 88 284 76 87 -6 190 -1 228 10 85 25 124 22
135 -10z"/>
<path d="M3160 1380 c0 -75 4 -80 59 -80 103 0 160 97 82 139 -90 49 -141 28
-141 -59z"/>
<path d="M3824 1364 c-34 -111 -31 -124 28 -124 50 0 52 4 38 75 -23 123 -40
136 -66 49z"/>
<path d="M2880 681 c0 -65 7 -81 36 -81 117 0 144 145 29 156 -64 6 -65 5 -65
-75z"/>
<path d="M3431 685 c-7 -30 -18 -71 -23 -90 -9 -28 2 -35 53 -35 52 0 61 6 50
35 -8 19 -19 60 -25 90 -6 30 -18 55 -26 55 -9 0 -22 -25 -29 -55z"/>
<path d="M4640 590 c0 -189 34 -220 143 -132 102 83 39 302 -86 302 l-57 0 0
-170z"/>
<path d="M5303 679 c-34 -97 -29 -119 29 -119 47 0 50 5 37 65 -24 112 -41
127 -66 54z"/>
</g>
</svg>
