<?xml version="1.0" standalone="no"?>
<!DOCTYPE svg PUBLIC "-//W3C//DTD SVG 20010904//EN"
 "http://www.w3.org/TR/2001/REC-SVG-20010904/DTD/svg10.dtd">
<svg version="1.0" xmlns="http://www.w3.org/2000/svg"
 width="300.000000pt" height="306.000000pt" viewBox="0 0 300.000000 306.000000"
 preserveAspectRatio="xMidYMid meet">
<metadata>
Created by potrace 1.10, written by Peter Selinger 2001-2011
</metadata>
<g transform="translate(0.000000,306.000000) scale(0.050000,-0.050000)"
fill="#000000" stroke="none">
<path d="M2746 6089 c-845 -186 -1154 -1259 -538 -1875 702 -702 1910 -209
1912 780 1 729 -656 1252 -1374 1095z m577 -126 c715 -248 925 -1136 396
-1668 -498 -499 -1332 -360 -1630 272 -379 802 402 1685 1234 1396z"/>
<path d="M2716 5901 c-658 -210 -876 -1032 -406 -1537 632 -680 1731 -156
1626 776 -62 552 -677 935 -1220 761z m333 -191 c25 -61 38 -70 100 -70 84 0
88 -17 21 -80 -42 -40 -48 -58 -37 -126 7 -45 5 -76 -5 -71 -10 5 -43 21 -74
36 -49 25 -63 24 -113 -5 -79 -47 -83 -44 -69 46 12 71 7 85 -40 122 -64 50
-51 78 35 78 55 0 71 11 99 70 18 39 38 70 43 70 6 0 24 -31 40 -70z m-539
-377 c24 -57 41 -70 114 -82 l86 -14 -63 -50 c-59 -46 -62 -54 -44 -120 25
-90 9 -105 -66 -62 -54 31 -65 32 -117 5 -81 -42 -87 -39 -74 38 9 55 1 77
-38 113 -64 61 -61 72 23 88 55 10 78 29 104 82 40 85 40 85 75 2z m1066 -11
c17 -47 36 -60 104 -72 l84 -14 -55 -57 c-45 -47 -53 -69 -43 -128 13 -79 0
-85 -82 -43 -47 24 -62 24 -104 1 -84 -46 -99 -38 -77 44 19 67 16 76 -36 119
-63 52 -43 87 47 88 30 0 56 21 76 60 39 75 61 76 86 2z m-415 -202 c8 -16 26
-68 40 -115 l26 -86 -87 -74 c-145 -126 -118 -129 -327 38 -37 30 -38 41 -18
110 13 42 29 98 36 123 15 57 301 60 330 4z m-441 -420 c18 -44 42 -62 92 -72
90 -17 99 -36 36 -78 -48 -31 -51 -41 -38 -125 l13 -91 -73 43 -73 43 -57 -40
c-79 -56 -86 -52 -71 49 12 80 8 92 -38 122 -66 44 -65 69 4 69 72 1 98 19
123 85 27 71 51 69 82 -5z m649 2 c31 -59 67 -82 133 -82 51 0 48 -24 -10 -78
-40 -37 -46 -59 -37 -124 l11 -80 -69 40 c-68 40 -69 41 -132 2 -74 -45 -91
-30 -66 55 14 52 10 69 -31 107 -61 57 -61 78 2 78 55 0 130 63 130 110 0 49
37 34 69 -28z"/>
<path d="M1340 5561 c-197 -60 -520 -345 -520 -460 0 -60 170 -21 219 51 135
199 426 342 508 251 136 -149 -298 -609 -546 -578 -144 18 -223 -70 -109 -122
341 -156 974 416 820 740 -57 119 -209 168 -372 118z"/>
<path d="M4386 5549 c-408 -209 301 -1038 723 -846 110 50 29 139 -110 122
-188 -23 -579 312 -579 496 0 202 313 112 529 -151 65 -79 83 -90 152 -90 95
0 95 1 17 124 -174 270 -540 443 -732 345z"/>
<path d="M744 5010 c-179 -78 -482 -579 -399 -662 43 -43 155 38 183 132 74
248 280 452 414 409 56 -18 138 6 138 40 0 85 -210 136 -336 81z"/>
<path d="M4985 5000 c-112 -68 -61 -138 82 -112 138 25 326 -162 401 -400 56
-178 217 -210 173 -34 -103 415 -428 685 -656 546z"/>
<path d="M921 4498 c-58 -160 -213 -324 -336 -357 -147 -39 -153 -141 -7 -141
205 0 463 272 533 565 13 53 10 55 -66 55 -79 0 -80 -1 -124 -122z"/>
<path d="M4889 4565 c71 -296 324 -563 534 -565 148 0 124 119 -29 148 -116
22 -353 321 -354 447 0 16 -30 25 -82 25 -80 0 -82 -2 -69 -55z"/>
<path d="M389 4299 c-175 -52 -314 -308 -326 -604 -8 -210 -6 -215 92 -155 62
37 65 46 65 159 0 244 109 417 302 480 58 19 109 43 112 53 16 49 -150 95
-245 67z"/>
<path d="M5440 4294 c-102 -35 -88 -77 37 -113 189 -55 303 -240 303 -495 0
-104 65 -186 147 -186 94 0 -43 554 -172 693 -105 114 -194 142 -315 101z"/>
<path d="M669 3949 c-57 -24 -63 -37 -84 -169 -30 -194 -105 -343 -197 -392
-132 -70 -154 -168 -38 -168 192 0 408 351 410 664 0 89 -12 98 -91 65z"/>
<path d="M5252 3965 c-44 -44 25 -373 109 -520 92 -162 297 -281 365 -212 20
19 -44 127 -76 127 -87 0 -201 203 -238 426 -23 133 -109 230 -160 179z"/>
<path d="M120 3445 c-143 -143 -157 -520 -28 -768 36 -71 50 -71 102 0 l42 56
-40 118 c-30 90 -38 157 -33 276 l8 158 116 103 c128 114 128 132 -3 132 -76
0 -99 -11 -164 -75z"/>
<path d="M5611 3501 c-6 -10 33 -56 87 -102 150 -126 186 -316 103 -551 l-39
-112 43 -58 c56 -76 71 -73 109 17 124 292 94 658 -66 783 -56 44 -215 59
-237 23z"/>
<path d="M2422 3369 c-199 -87 -172 -262 65 -425 136 -93 93 -220 -47 -140
-59 34 -61 33 -92 -15 -96 -146 222 -208 341 -67 105 125 63 253 -120 362
-161 97 -151 210 14 155 106 -35 169 12 108 80 -65 72 -172 92 -269 50z"/>
<path d="M3366 3373 c-188 -68 -175 -275 25 -403 169 -108 166 -233 -4 -172
-99 36 -179 -41 -105 -102 130 -110 360 -41 390 115 19 104 -22 179 -139 252
-133 83 -157 112 -132 160 24 44 75 48 130 9 60 -42 152 26 108 79 -63 77
-169 101 -273 62z"/>
<path d="M975 3368 c-3 -3 25 -164 63 -357 l70 -351 84 0 c95 0 87 -15 129
250 12 77 27 154 33 170 12 32 84 -274 85 -365 1 -77 174 -86 190 -10 27 124
111 571 116 613 5 43 -3 48 -75 48 l-80 1 -16 -159 c-32 -300 -38 -306 -83
-77 -18 87 -36 178 -41 201 -7 33 -23 41 -79 39 -90 -3 -86 4 -123 -203 -41
-224 -59 -244 -76 -84 -32 304 -27 291 -113 291 -43 0 -81 -3 -84 -7z"/>
<path d="M1828 3362 c-4 -5 -8 -165 -8 -355 l0 -347 210 0 210 0 0 70 0 70
-130 0 -130 0 0 80 0 80 100 0 100 0 0 70 0 70 -100 0 -100 0 0 70 0 70 120 0
120 0 0 65 0 65 -192 0 c-105 0 -195 -4 -200 -8z"/>
<path d="M2768 3362 c-45 -46 -3 -142 62 -142 l70 0 0 -280 0 -280 79 0 80 0
5 285 6 285 60 0 c53 0 61 8 66 64 l6 63 -213 7 c-117 3 -216 2 -221 -2z"/>
<path d="M3748 3362 c-4 -5 -8 -165 -8 -355 l0 -347 80 0 80 0 0 357 0 356
-72 -1 c-39 -1 -75 -6 -80 -10z"/>
<path d="M4019 3376 c-1 -3 -3 -167 -5 -363 l-4 -357 173 7 c153 6 180 13 227
57 165 154 161 502 -6 612 -45 30 -381 68 -385 44z m310 -175 c117 -129 2
-450 -142 -396 -10 4 -17 386 -8 430 5 23 122 -3 150 -34z"/>
<path d="M4620 3015 l0 -355 210 0 210 0 0 70 0 70 -130 0 -130 0 0 80 0 80
90 0 c90 0 90 0 90 70 0 70 0 70 -90 70 -90 0 -90 0 -90 70 l0 70 120 0 120 0
0 65 0 65 -200 0 -200 0 0 -355z"/>
<path d="M530 3235 l-52 -45 31 -119 c54 -209 33 -380 -60 -481 -105 -112 -12
-200 107 -100 129 108 173 402 97 654 -41 139 -55 149 -123 91z"/>
<path d="M5373 3225 c-111 -218 -82 -580 57 -719 120 -120 217 -66 123 70
-101 147 -121 304 -62 502 33 112 25 142 -54 183 -29 16 -41 9 -64 -36z"/>
<path d="M300 2706 c-223 -82 -221 -476 6 -811 76 -113 103 -118 134 -25 20
61 18 77 -18 128 -149 209 -172 445 -56 586 101 124 74 173 -66 122z"/>
<path d="M5560 2695 c0 -14 32 -65 70 -113 106 -133 103 -263 -13 -497 -121
-244 -60 -393 77 -190 206 304 226 673 42 784 -74 46 -176 55 -176 16z"/>
<path d="M633 2488 c-37 -51 -37 -52 25 -175 95 -188 114 -329 62 -448 -65
-147 -27 -226 74 -155 126 88 139 385 28 623 -99 212 -130 236 -189 155z"/>
<path d="M5254 2481 c-133 -158 -195 -521 -116 -677 102 -199 235 -143 140 59
-56 120 -34 274 63 454 59 111 58 146 -8 200 -23 20 -38 13 -79 -36z"/>
<path d="M1880 1965 l0 -371 161 12 c252 20 358 131 358 374 0 242 -88 328
-354 345 l-165 11 0 -371z m318 186 c115 -116 14 -411 -141 -411 -9 0 -17 105
-17 233 l0 232 65 -13 c35 -7 77 -26 93 -41z"/>
<path d="M2489 2314 c-6 -14 -8 -178 -5 -365 l6 -339 75 -6 75 -6 0 371 0 371
-71 0 c-39 0 -75 -11 -80 -26z"/>
<path d="M2778 2282 c-110 -110 -72 -238 106 -363 173 -122 139 -215 -55 -150
-36 12 -89 -47 -89 -99 0 -24 127 -70 190 -70 276 0 319 279 66 432 -160 97
-153 213 9 152 56 -21 152 15 154 57 5 92 -297 124 -381 41z"/>
<path d="M3366 2300 c-173 -115 -201 -482 -47 -629 84 -81 402 -92 401 -14 -1
44 -74 119 -101 102 -141 -89 -262 47 -233 263 19 141 62 184 174 173 102 -9
175 58 121 112 -42 42 -246 38 -315 -7z"/>
<path d="M3818 2282 c-110 -111 -68 -250 111 -368 156 -105 144 -218 -17 -157
-61 23 -132 -19 -132 -79 0 -30 116 -78 190 -78 279 0 323 271 70 432 -92 58
-120 87 -116 118 7 47 102 67 146 30 28 -24 130 25 130 62 0 93 -297 124 -382
40z"/>
<path d="M571 1941 c-213 -141 -101 -528 220 -755 149 -106 169 -107 169 -8 0
66 -11 86 -75 134 -231 176 -307 338 -244 521 52 152 36 177 -70 108z"/>
<path d="M5328 1952 c-6 -15 4 -61 21 -102 76 -184 -2 -360 -239 -542 -73 -55
-106 -208 -45 -208 172 2 493 448 470 654 -15 131 -174 283 -207 198z"/>
<path d="M927 1835 c-18 -62 -13 -70 103 -185 155 -153 218 -281 200 -408 -17
-129 20 -182 89 -127 154 125 22 498 -252 712 -114 89 -117 89 -140 8z"/>
<path d="M4898 1795 c-251 -215 -357 -524 -230 -666 73 -82 121 -28 101 114
-17 131 38 246 195 401 123 121 127 129 109 191 -25 85 -31 83 -175 -40z"/>
<path d="M1452 1345 c-53 -53 -9 -145 94 -194 194 -92 334 -242 334 -357 0
-27 20 -74 44 -104 l43 -55 37 44 c94 117 -10 354 -224 511 -107 78 -309 174
-328 155z"/>
<path d="M1074 1304 c-189 -208 70 -589 492 -724 93 -29 100 -24 83 69 -10 55
-28 79 -66 93 -283 106 -430 272 -419 473 7 126 -27 159 -90 89z"/>
<path d="M4351 1275 c-290 -158 -463 -443 -359 -592 42 -60 101 -14 120 95 28
154 142 279 342 373 98 46 106 55 106 120 0 90 -47 91 -209 4z"/>
<path d="M4829 1319 c-7 -11 -6 -64 1 -118 24 -179 -131 -351 -413 -458 -38
-15 -56 -39 -66 -94 -18 -96 -17 -96 119 -49 309 106 555 376 519 570 -23 120
-121 211 -160 149z"/>
<path d="M2053 965 c-29 -47 47 -145 112 -145 271 0 521 -227 717 -653 108
-232 124 -228 270 68 186 378 423 585 672 585 67 0 79 8 103 65 41 95 17 107
-168 80 -287 -42 -545 -234 -692 -515 -70 -134 -64 -134 -134 0 -83 157 -268
351 -406 424 -160 85 -444 139 -474 91z"/>
<path d="M1723 809 c-125 -274 194 -511 692 -515 258 -2 294 13 244 102 -30
53 -33 54 -240 54 -314 1 -540 94 -570 236 -33 155 -87 208 -126 123z"/>
<path d="M4204 835 c-11 -14 -30 -63 -43 -110 -51 -191 -314 -306 -634 -277
-181 17 -305 -100 -152 -143 359 -100 925 126 925 370 0 134 -49 217 -96 160z"/>
</g>
</svg>
